<?xml version="1.0" encoding="UTF-8"?>
<svg width="100pt" height="100pt" version="1.1" viewBox="0 0 100 100" xmlns="http://www.w3.org/2000/svg">
 <g fill="#c58d20">
  <path d="m49.461 22.656 0.58203 0.054688c0.019531 0 0.035156 0.003906 0.054687 0.003906 0.015625 0 0.035156 0 0.050782-0.003906 0.97266-0.085938 2.1445-0.37109 2.5547-1.8359 0.35156-1.2422-0.054687-2.457-1.0781-3.25-0.32031-0.25-0.80469-0.375-1.4414-0.375-0.61719 0-1.4609 0.13672-1.9531 0.44141-1.043 0.64844-1.4258 1.5547-1.1367 2.6836 0.32812 1.2578 0.85547 2.1289 2.3672 2.2812zm-0.60938-3.9727c0.20703-0.12891 0.77344-0.26562 1.332-0.26562 0.4375 0 0.66406 0.085937 0.72266 0.12891 0.64453 0.5 0.88672 1.2305 0.66797 2.0078-0.15625 0.55859-0.44141 0.88281-1.4805 0.98047l-0.52344-0.046875c-0.73828-0.074219-1.0547-0.29688-1.3398-1.4062-0.16406-0.63672 0.003906-1.0156 0.62109-1.3984z"/>
  <path d="m2.9062 82.812h0.003906c2.0898 0 4.1953-0.13672 6.293-0.16797 0.007813 0 0.015625-0.050781 0.019531-0.050781s0.003906-0.027344 0.007813-0.027344c1.0234-0.015625 2.043 0.09375 3.0625 0.078125 0.070312 0.03125 0.14453 0.16797 0.22656 0.16797h0.03125c0.074219 0 0.14453 0.03125 0.20703 0 1.1172-0.019531 2.2227 0 3.3281 0h0.31641v-0.19141c0-0.003906 0.44531-0.10547 0.74219-0.11328 0.77344-0.015624 1.4766-0.074218 2.25-0.089843 0.066407 0.027343 0.10156 0.023437 0.17578 0.023437 0.070313 0 0.12891-0.027344 0.19922-0.054687 0.007813-0.003907 0.003907-0.015625 0.007813-0.019531 9.1875-0.15625 18.605-0.27344 27.863 0.16406 3.0234 0.14453 6.1602-0.03125 9.1992-0.19922 1.7148-0.09375 3.457-0.1875 5.1914-0.22656 0.09375 0.0625 0.20703 0.10156 0.32422 0.10156 0.058593 0 0.11719-0.007812 0.17969-0.027343 0.058594-0.019532 0.10938-0.054688 0.15625-0.085938 2.0039-0.027344 3.9961 0.027344 5.9219 0.26172 0.28125 0.035156 0.58594 0.23438 0.875 0.26172 0.023438 0.003906 0.042969 0.19531 0.066407 0.19531h0.027343c0.011719 0 0.019531-0.18359 0.027344-0.18359 2.2812 0.21875 4.8594 0.21094 7.6016 0.21094 0.23437 0 0.48047-0.015625 0.71875-0.019532 0.003906 0 0.007812-0.011718 0.011718-0.011718h0.011719c0.003906 0 0.007813 0.023437 0.015625 0.023437 1.2891-0.007812 2.6016-0.023437 3.9258-0.023437h0.003907 0.027343 0.003907 3.5 0.003906 0.003906c0.19922 0 0.39453-0.11328 0.59375-0.11719 0.85547-0.023437 1.6953-0.09375 2.5234-0.11328 0.027343 0.003906 0.054687-0.015625 0.082031-0.015625 0.027343 0 0.054687-0.023438 0.082031-0.027344 3.0625-0.074218 5.9258-0.12109 8.3555-0.03125 0.33203 0.03125 0.59375-0.24219 0.60547-0.56641 0.011718-0.32422-0.24219-0.59766-0.5625-0.60938-1.5156-0.054687-3.1914-0.0625-4.9688-0.039063 0.16016-2.0664-0.089844-4.4844-0.30078-6.4688l-0.058594-0.55078c-0.097656-0.92188-0.089843-1.875-0.082031-2.8008 0.007813-1.0938 0.015625-2.2266-0.14453-3.3594-0.089844-0.65234-0.28516-1.3398-1.0977-1.9609-3.2695-2.5-6.4766-5.0391-10.023-7.8594-0.39453-0.3125-0.80078-0.60156-1.207-0.89453-0.48438-0.34766-0.98438-0.70703-1.4453-1.0938-0.70312-0.58984-1.5977-0.56641-2.3828-0.54688-0.22266 0.003906-0.44531 0.011719-0.66016 0.003906-1.0078-0.046874-3.7188-0.019531-6.1914 0.019532-0.042969-0.65234-0.10938-1.3359-0.19531-2.0664-0.14062-1.1914-0.27344-2.4102-0.24609-3.5156 0.33984 0.011719 0.69922 0.027344 1.1016 0.042969l0.60938 0.023438c0.5 0.015625 1.0039 0.035156 1.5 0.03125 0.51953-0.003907 0.92578-0.16016 1.1992-0.45703 0.39453-0.43359 0.39844-1.0273 0.36719-1.4336-0.074219-0.9375-0.32031-1.8164-1.6328-1.8984-0.41016-0.027344-0.81641-0.042968-1.2266-0.0625l-1.4922-0.097656c-0.082031-0.91406-0.20703-1.7891-0.36719-2.6211 0-0.019531 0.003906-0.035156 0-0.054687-0.003906-0.015625-0.015625-0.03125-0.019531-0.046875-1.6016-8.0781-6.5273-12.254-6.582-12.297-3.1914-2.6445-6.2617-3.9375-9.0508-4.4219-0.039062-0.51953-0.19141-1.3086-0.74609-1.8867-0.4375-0.45703-1.0469-0.68359-1.7656-0.66406-0.74609 0.023438-1.3516 0.28125-1.793 0.76953-0.49609 0.54688-0.65234 1.2461-0.69922 1.7188-5.0117 0.75-8.3086 3.6602-8.3711 3.7188-0.68359 0.66016-4.5391 5.0352-4.9336 5.4844-0.92969 0.83203-2.5938 4.832-2.7578 6.1055-0.070313 0.54687-0.19141 1.1328-0.32031 1.7461-0.039062 0.074219-0.066406 0.15625-0.070312 0.24609 0 0.019531 0.007812 0.035156 0.007812 0.050781-0.19531 0.92969-0.37891 1.8789-0.41797 2.8008-0.99609 0.039062-1.6445 0.066406-1.7891 0.070312-0.62891 0.03125-1.4023 0.31641-1.5156 1.5195-0.097656 1.0039 0.37109 1.6914 1.2539 1.8398 0.43359 0.074219 0.87109 0.10547 1.293 0.13672l0.31641 0.023437c0.070312 0.003907 0.12891 0.011719 0.18359 0.019531 0.035157 0.015626 0.070313 0.023438 0.10938 0.03125 0.125 0.058594 0.21094 0.1875 0.33203 0.51563 0.1875 0.51172 0.089843 1.0078-0.019532 1.582-0.10156 0.53125-0.39062 1.1367-0.25 1.7734 0.054688 0.29297-0.097656 0.83594-0.097656 1.2695v0.011718c0 0.003906-0.98828 0.003906-1.0078 0.003906-0.41797 0.019532-1.2695 0.003907-2.2617-0.011718-2.1953-0.039063-3.7539-0.054688-4.3906 0.0625-0.29688 0.054687-0.52344 0.074218-0.76172 0.089844-0.71875 0.050781-1.3906 0.10156-2.7422 0.93359-1.1562 0.71094-2.2852 1.4883-3.3828 2.2422-1.6758 1.1484-3.4062 2.3398-5.2266 3.2852-1.75 0.91016-1.9141 2.3789-1.8438 3.6953 0.082032 1.5742-0.050781 10.57-0.20312 13.363-0.019532 0.37109-0.003907 0.73047 0.011718 1.0742 0.011719 0.28516 0.015625 0.56641 0.011719 0.84766-1.9258 0.023437-3.8516 0.046875-5.7617 0.050781-0.32422 0-0.58594 0.37109-0.58203 0.69531-0.003906 0.32812 0.25781 0.69531 0.57812 0.69531zm31.066-1.9922c-0.070312-0.72656-0.14062-1.4141-0.14062-2.1172 0-1.3516-0.066406-2.9805-0.125-4.4141l-0.027343-0.64062c0.23047 0.015624 0.45703 0.03125 0.66797 0.042968 0.15234 0.011719 0.29688 0.019532 0.43359 0.027344 0.019531 1.1914 0.10547 2.9883 0.21875 3.9805 0.097656 0.86719 0.074219 1.8203 0.050781 2.7422-0.003906 0.20703-0.007812 0.41406-0.011719 0.61719-0.34766 0-0.69922 0-1.0469-0.003906-0.003907-0.074219-0.011719-0.15625-0.019532-0.23438zm5.2344-13.355c0.63672-0.58203 1.3984-0.79688 2.082-0.58594 0.65234 0.20312 1.2695 0.76562 1.4531 1.5508 0.078124 0.31641 0.22656 0.89062 0.22656 1.3477v0.015625c-0.78125-0.019531-1.1055-0.035157-1.3789-0.042969-0.42578-0.007812-1.7305-0.003906-3.0156 0.007812-0.035157-0.83594 0.0625-1.7734 0.63281-2.293zm2.2188 3.4609c0.35156 0.007813 0.98047 0.070313 1.7031 0.097657 0.050782 0.015624 0.10547 0.070312 0.16016 0.070312h0.03125 0.078126 0.003906c1 0 2.0898 0.03125 2.9062 0.050781-0.13672 0.47266-0.25781 1.0078-0.34766 1.6797-1.8242-0.21094-4.6094-0.14453-4.8086-0.13672-0.91406 0.14844-1.832 0.085938-2.8047 0.03125-0.54688-0.03125-1.1172-0.066406-1.6797-0.0625-0.17578 0.003906-1.3125-0.074219-2.2383-0.13672-0.70703-0.046875-1.2188-0.082031-1.5898-0.10156 0-0.375 0.007812-0.83594 0.015625-1.2773 0.47266 0 0.96875-0.042969 1.457-0.085937 0.32812-0.027344 0.64453-0.054688 0.92578-0.066407 1.2148-0.042969 5.3672-0.082031 6.1875-0.0625zm6.8438-1.3945c0.085938 0 0.16016 0.007812 0.21094-0.078125 0.19141-0.32031 0.57812-0.54297 0.98828-0.83203 0.86328-0.60547 1.6602-0.81641 2.5898-0.71875 2.2305 0.36719 3.4102 1.6445 3.4102 2.875v0.003906l0.089844 0.003906c0.19922 0.65234 0.30469 1.2969 0.34766 1.8047-2.1836 0.058594-4.6719 0.13281-7.5859 0.23047-0.48828 0.015626-0.88672 0.03125-1.1992 0.039063 0.13672-0.96094 0.53516-1.6406 0.53516-2.1094 0-0.74219 0.60938-1.2188 0.60547-1.2188zm17.574 1.4297c0.003906 0 0.007812 0.13281 0.011719 0.13281h0.007812c0.003907 0 0.007813-0.13281 0.011719-0.13281 1.5664 0.003906 2.9219-0.03125 3.6875 0.019531-0.019531 0.24219-0.039062 0.44922-0.054688 0.6875-0.023437 0.30469-0.054687 0.59375-0.082031 0.90234-0.34375-0.042968-0.84375-0.082031-1.582-0.10547-0.007812 0-0.015625-0.007813-0.023438-0.007813h-0.019531c-1.793-0.054687-4.9688-0.042969-10.676 0.10156-0.03125-0.38672-0.074219-0.83203-0.1875-1.3945 1.6211-0.18359 5.6914-0.21094 8.9062-0.20312zm-4.0625-1.2656c0-0.76953 0-1.7188 0.36719-2.25 0.40625-0.59375 1.082-0.97656 1.6602-0.92187 0.48047 0.042968 0.86719 0.38672 1.1484 1.0234 0.17969 0.41016 0.28516 1.2891 0.3125 2.1172-1.1328 0-2.332 0.007813-3.4883 0.03125zm8.8906 2.0273c0.070313-0.99609 0.13672-1.9336 0.39844-2.7773 0.26563-0.86328 0.74219-1.3125 1.4219-1.332l0.19141-0.003906c0.64453 0 0.74609 0 1.0781 1.1406 0.035156 0.11719 0.089843 0.21094 0.125 0.24219l0.078125 0.38672c0.23047 1.1133 0.44922 2.1641 0.09375 3.1992-0.023438 0.066406-0.039063 0.12891-0.054688 0.19531-0.35156 0.011718-0.69922 0.042968-1.0508 0.074218-0.45703 0.039063-0.89062 0.078125-1.3203 0.078125-0.39453 0-0.73828-0.03125-1.0547-0.10156 0.042969-0.36719 0.070313-0.73438 0.09375-1.1016zm-8.9258 4.8164c0.011718 1.0156 0.023437 2.0273 0.023437 2.9453 0 0.21875-0.023437 0.4375-0.046875 0.65625-0.027344 0.25391-0.054687 0.52344-0.054687 0.80078-0.24609 0.007813-0.49609 0.015625-0.74219 0.023438-0.011719-0.078125-0.023437-0.16016-0.027343-0.23828-0.042969-1.25-0.082032-2.8945-0.11719-4.4688-0.023438-0.92578-0.042969-1.8203-0.066406-2.6094 0.34375-0.007813 0.67969-0.011719 1.0039-0.019532 0.007812 0.92578 0.019531 1.918 0.027344 2.9102zm-6.7656 4.7227-0.019531-0.1875c-0.15625-1.4883-0.14844-3.7031-0.13672-5.6602 0.003906-0.57812 0.003906-1.125 0.003906-1.6211 0.41016-0.011719 0.8125-0.023438 1.2031-0.03125 0 0.23828 0.003906 0.48828 0.007812 0.75 0.011719 0.91406 0.023438 1.9531-0.007812 2.6055-0.03125 0.60547-0.015625 1.2344 0 1.8398 0.019531 0.75391 0.035156 1.5234-0.035156 2.25-0.33594 0.019531-0.67578 0.035157-1.0156 0.054688zm2.2227-2.3359c-0.015625-0.61328-0.03125-1.1914-0.003906-1.75 0.035156-0.69141 0.023437-1.7031 0.011719-2.6836-0.003907-0.26563-0.007813-0.51953-0.007813-0.76563 0.81641-0.019531 1.6055-0.039062 2.3438-0.054687 0.019531 0.78906 0.042969 1.6875 0.066406 2.6133 0.039063 1.5781 0.078125 3.2227 0.11719 4.4766 0.003906 0.082031 0.019531 0.16406 0.027343 0.24609-0.86328 0.039063-1.7188 0.085938-2.5742 0.13281 0.058594-0.73438 0.039062-1.4844 0.019531-2.2148zm-21.035-1.3555c-0.10156-0.91406-0.1875-2.6172-0.20703-3.7773 0.37891 0.023437 0.62109 0.035156 0.71875 0.035156 0.52344-0.003906 1.0742 0.027344 1.6016 0.054687 0.18359 0.011719 0.36719 0.019532 0.55078 0.027344l0.023438 0.64453c0.054687 1.6328 0.11719 3.3789 0.14062 4.9375 0.003906 0.29297-0.003906 0.59766-0.015625 0.92187-0.007813 0.21875-0.011719 0.44922-0.015625 0.69141-0.91406-0.015625-1.832-0.027344-2.75-0.035157 0.003906-0.19922 0.003906-0.39453 0.011718-0.59375 0.019532-0.96484 0.046876-1.9609-0.058593-2.9062zm3.8516-3.0547-0.019531-0.57812c0.37891-0.003906 0.75-0.027344 1.1172-0.082031 0.066406 0.64453 0.046874 1.1289 0.011718 1.7891l-0.011718 0.20703c-0.0625 1.2773-0.046876 2.6445-0.03125 3.9648 0.003906 0.44922 0.007812 0.88672 0.011718 1.3281-0.32422-0.007812-0.64453-0.019531-0.96875-0.023437 0.003906-0.23438 0.007813-0.45703 0.015625-0.67188 0.011719-0.34375 0.019531-0.66797 0.015625-0.97656-0.023437-1.5664-0.082031-3.3203-0.14062-4.957zm2.2422 5.2852c-0.015625-1.3047-0.035157-2.6523 0.027343-3.8906l0.011719-0.20703c0.03125-0.64062 0.058594-1.1836-0.007812-1.8789 0.91016-0.003907 2.25 0.007812 3.293 0.11328-0.11328 0.40234-0.097657 0.76172-0.082032 1.0742l0.007813 0.20312c0.042969 1.7617 0.074219 3.6992 0.097656 5.5234l0.007813 0.54297c-1.1133-0.042969-2.2305-0.078125-3.3477-0.10938 0-0.45312 0-0.90234-0.007812-1.3711zm-10.559-9.5898c0 0.054687-0.003906 0.11719-0.003906 0.17578-0.003907 0.023437-0.019531 0.042969-0.023438 0.066406-0.007812 0.066406 0 0.13281 0.015625 0.19531-0.015625 0.58203-0.027344 1.2539-0.027344 1.7734-0.71484 0.20703-1.4688 0.14844-2.2617 0.089844-0.38672-0.03125-0.78125-0.058594-1.1836-0.058594-0.10938 0-0.22266 0.003906-0.33203 0.007813-0.21094 0.003906-0.36328-0.035157-0.46484-0.13672-0.10938-0.11328-0.17188-0.30078-0.18359-0.55078l-0.035156-0.66016c-0.039063-0.76172-0.082031-1.5469-0.054687-2.3047 0.054687-1.4141 0.27734-1.5273 1.6328-1.9688 1.0078-0.32812 1.9023 0.0625 2.3906 1.043 0.26562 0.53516 0.54297 1.0898 0.54297 1.6797 0.003906 0.085938-0.003906 0.32812-0.011719 0.64844zm15.09 11.117-0.007813-0.60938c-0.027344-1.8281-0.054687-3.7695-0.097656-5.5312l-0.007812-0.23047c-0.015626-0.34375-0.019532-0.60938 0.13281-0.91406 0.30469-0.007813 0.79297-0.023438 1.4219-0.046875-0.007813 0.85156 0.003906 1.8594 0.011719 2.832 0.007812 0.82422 0.015625 1.6172 0.011718 2.2578 0 0.28125 0.019532 0.78125 0.039063 1.3125 0.011719 0.33203 0.027344 0.66797 0.035156 0.97656-0.21094-0.007812-0.42578-0.003906-0.63672-0.015625-0.30078-0.011719-0.60156-0.019531-0.90234-0.03125zm2.7109 0.074219c-0.007812-0.32812-0.023437-0.69531-0.039062-1.0508-0.019532-0.50781-0.039063-0.98828-0.039063-1.2578 0.003907-0.64453-0.003906-1.4453-0.011719-2.2773-0.007812-0.98438-0.019531-2.0039-0.011718-2.8594 1.5-0.046875 2.918-0.09375 4.2539-0.13281 0 0.48438 0 1.0195-0.003906 1.5781-0.007813 1.9883-0.019532 4.2383 0.14453 5.793l0.011719 0.11328c-1.4375 0.070312-2.8789 0.10938-4.3047 0.09375zm13.34-0.48438c0-0.20312 0.019531-0.41797 0.046875-0.65234 0.027344-0.26172 0.054687-0.52344 0.054687-0.78516-0.003906-0.92188-0.015624-1.9375-0.023437-2.957-0.011719-0.99219-0.019531-1.9844-0.023437-2.9102 1.793-0.023437 3.2305-0.027343 4.3125-0.011719l-0.015626 0.87891c-0.042968 2.0547-0.089843 4.1797 0.023438 6.2188 0.003906 0.058593-0.027344 0.21875-0.054688 0.33594-1.4258-0.10156-2.8711-0.13281-4.3203-0.11719zm5.4883 0.23047c0.03125-0.17578 0.0625-0.34766 0.054688-0.50781-0.10938-1.9961-0.066407-4.0977-0.023438-6.1328l0.015625-0.87109c0.3125 0.015625 0.57812 0.03125 0.77734 0.050781-0.17969 1.1562-0.17969 3.2344-0.15234 5.7461 0.007813 0.68359 0.011719 1.2969 0.007813 1.7812-0.082031-0.007813-0.17188-0.015625-0.25391-0.023438-0.14062-0.015625-0.28516-0.027344-0.42578-0.042968zm1.8516 0.18359c0.003906-0.51172 0-1.1719-0.007813-1.9062-0.015625-1.6641-0.042969-4.2734 0.125-5.4609 0.41016 0.09375 0.84375 0.14062 1.3398 0.14062 0.48047 0 0.96094-0.042969 1.4219-0.082031 0.36328-0.03125 0.72656-0.0625 1.0859-0.074219 0.79297-0.023438 0.94922-0.66406 1-0.875 0.007812-0.035157 0.015624-0.074219 0.03125-0.10938 0.45703-1.3398 0.19531-2.5977-0.054688-3.8164l-0.078125-0.37891c-0.03125-0.15625-0.097656-0.26953-0.15234-0.34375-0.40234-1.3711-0.8125-1.9805-2.2031-1.9805l-0.23047 0.003907c-1.1836 0.035156-2.0977 0.82422-2.5078 2.1602-0.11719 0.375-0.19141 0.76562-0.25391 1.1602-0.71484-0.046875-1.8867-0.078125-3.2578-0.089843-0.023437-0.73047-0.10547-1.8984-0.41406-2.5938-0.45312-1.0234-1.2031-1.6289-2.1133-1.7148-0.98437-0.089844-1.9219 0.48047-2.5703 1.4258-0.57422 0.82031-0.40625 1.9844-0.40625 2.9219v0.007812c-2.3438 0.046876-3.3281 0.12891-4.1797 0.24219-0.55078-1.3828-1.8008-2.7695-4.375-3.1914-1.2539-0.13281-2.4414 0.17969-3.5469 0.95312-0.48047 0.33594-0.96094 0.67969-1.2695 1.1406-0.1875 0.14844-0.55859 0.46094-0.85938 1.0664-0.72656-0.015625-2.1758-0.058594-2.957-0.097656v-0.070313c0-0.54297 0.046875-1.1602-0.058594-1.6055-0.28125-1.1992-1.0234-2.0781-2.082-2.4023-1.0742-0.33203-2.2656-0.019531-3.207 0.83984-0.98047 0.89844-1.1055 2.293-1.0781 3.1758-0.89062 0.011718-1.6914 0.027344-2.1367 0.042968-0.30078 0.011719-0.63281 0.039063-0.98438 0.070313-0.45312 0.039063-0.91016 0.078125-1.3242 0.078125 0.003906-0.19531 0.007813-0.34375 0.007813-0.40625 0-0.86719-0.35547-1.5781-0.66797-2.2031-0.74609-1.5-2.2383-2.1445-3.8008-1.6367-1.6406 0.53125-2.3672 0.98047-2.4453 3.0391-0.03125 0.8125 0.011719 1.625 0.054688 2.4141l0.035156 0.65234c0.023438 0.53906 0.20312 0.99609 0.51562 1.3164 0.33984 0.34766 0.8125 0.51562 1.3555 0.48828 0.44141-0.019531 0.89453 0.015626 1.375 0.050782 0.86719 0.066406 1.7617 0.074218 2.6797-0.19141 0.058594-0.003907 0.13281-0.054688 0.23047-0.054688h0.015625c0.074219 0 0.17578 0.070312 0.26953 0.074219l0.03125 0.79297c0.058594 1.4258 0.125 3.0547 0.125 4.3828 0 0.76172 0.074219 1.5156 0.14453 2.2383 0.003906 0.039063 0.007812 0.085938 0.011718 0.125-3.0703 0-6.1367 0.035157-9.1836 0.078125 0-0.027344 0-0.050781 0.003907-0.078125 0.011719-0.24609 0.023437-0.50391-0.011719-0.76953-0.13281-1.0039-0.089844-2.0039-0.042969-3.0625 0.023438-0.57422 0.050781-1.1523 0.046875-1.7266-0.007812-1.4609-0.027344-2.9219-0.042968-4.3828-0.015626-1.457-0.035157-2.918-0.042969-4.375-0.003907-0.53906-0.035157-1.6016-0.0625-2.418 0.94531-0.023437 2-0.035156 3.0547-0.035156 0.007813 0 0.015625 0.003906 0.019532 0.003906 0.003906 0 0.007812-0.003906 0.011718-0.003906 0.39453 0 0.78906 0 1.1758 0.003906 0.35937-0.015625 1.8047-0.03125 3.4844-0.046875 0.96484-0.007812 1.793-0.015625 2.5039-0.027343h0.054687c2.5352-0.03125 3.5273-0.054688 3.8828-0.097657 0.39844 0.007813 1.3242 0.070313 2.3047 0.13672 1.7109 0.11328 3.6445 0.24609 4.4062 0.21875 0.28125-0.011719 1.5156-0.042969 3.1914-0.085938 0.33203-0.007812 0.67969-0.015624 1.043-0.027343 8.207-0.21094 12.434-0.32422 12.754-0.37109 0.66016-0.097656 4.0859-0.066406 6.5859-0.046875 3.0078 0.023438 3.4805 0.027344 3.6758-0.046875 0.058594-0.007813 0.14844-0.011719 0.25391-0.015625h0.011719c0.003907 0 0.007813-0.003906 0.011719-0.003906 1.0352-0.027344 4.0156 0.14844 5.0781 0.21094 0.15234 0.007813 0.28125 0.015625 0.39453 0.023438 0.003906 0.17578 0.007813 0.33594 0.011719 0.51953l0.019531 0.75781c0.054688 2.4531 0.10938 5.3047 0 8.1367-0.058594 1.6055-0.050781 3.3398-0.039062 5.0195 0.007812 1.0312 0.007812 2.0469 0 3.0352-2.5781 0.007812-5.0195-0.058594-7.1875-0.24219zm-42.895-18.227 0.24219-1.0508c0.089844-0.003907 0.19531 0 0.32422 0.011718 0.18359 0.011719 0.39453 0.023438 0.61719-0.003906 0.41406-0.050781 1.3828-0.17188 1.5312-0.042969 0.10547 0.09375 0.13281 0.61328 0.14062 1.0508-1.2031 0.011719-2.1523 0.023438-2.4219 0.035157-0.125 0.003906-0.27344 0.003906-0.43359 0zm7.0664-1.1914c0.011719-0.007812 0.11328-0.19531 0.5625-0.19531h0.082031 0.21094c1.5195 0 1.7188 0.125 1.8086 1.1328-0.57422 0.019532-1.543 0.097657-2.6094 0.11328-0.015625-0.0625-0.03125-0.085938-0.046875-0.13281-0.011719-0.042969-0.035156-0.15234-0.035156-0.17188-0.003906-0.20312-0.011719-0.66797 0.027344-0.74609zm6.6602 0.48828 0.46875-0.046875c0.63281-0.066407 1.2852-0.13281 1.9414-0.18359 0.21484-0.015625 0.44531 0.007813 0.53516 0.48828 0.027343 0.15234 0.039062 0.39844 0.046874 0.63672-0.67578-0.007813-1.8438-0.078125-2.9883-0.15234-0.039062-0.26172-0.058593-0.52344-0.003906-0.74219zm7.1602 0.79297c0.011719-0.71875 0.12109-0.81641 0.46484-0.84375 0.86328 0 1.7695-0.058593 2.6484-0.10937 1.2695-0.078126 2.582-0.15625 3.7773-0.078126 0.22656 0.015626 0.33594 0.38281 0.40625 0.83984-2.3125 0.0625-4.8906 0.12891-6.8867 0.17969-0.14063 0.003906-0.27344 0.007812-0.41016 0.011718zm11.738-0.31641c0.007813-0.42578 0.046876-0.80859 0.19531-0.95312 0.14453-0.14453 0.49219-0.16406 0.76562-0.15234 0.21094 0.007812 0.41406-0.023438 0.58984-0.050782 0.10938-0.015625 0.21484-0.035156 0.32422-0.039062 0.29688-0.007813 1.0938-0.03125 1.2148 0.085937 0.097656 0.09375 0.11719 0.67969 0.125 0.98438-0.94922 0.007813-1.625 0.03125-1.9219 0.074219-0.10156 0.007813-0.57812 0.027344-1.293 0.050781zm6.8203-0.94531c-0.019531-0.33984 0.11328-0.49609 0.44141-0.52344l0.09375-0.007812c0.51562-0.042969 1.0078-0.085938 1.4648-0.003906 0.12891 0.35547 0.29297 0.89062 0.36719 1.3789-0.36719-0.003906-0.75391-0.003906-1.1367-0.007813-0.42188-0.003906-0.82812-0.007812-1.2266-0.007812 0.003907-0.3125 0.007813-0.63672-0.003906-0.82812zm8.1875 0.86328c-1.125-0.058594-1.8984-0.085937-2.4375-0.09375 0.023437-0.95703 0.19141-0.98828 1.3281-1.125 0.046875-0.007813 0.12891 0 0.21094 0.007813 0.19531 0.015624 0.4375 0.035156 0.69141-0.054688 0.058594-0.019531 0.10156-0.03125 0.13672-0.039062 0.015626 0.058593 0.035157 0.15625 0.050782 0.33203 0.023437 0.27734 0.023437 0.63281 0.019531 0.97266zm14.305 18.547c-0.007812-0.14844-0.015624-0.25391-0.015624-0.25781-0.11719-1.3125-0.10156-2.6602-0.089844-3.9648 0.007812-0.92188 0.019531-1.875-0.015625-2.8164-0.011719-0.32422-0.29688-0.58594-0.60547-0.5625-0.32422 0.011718-0.57422 0.28516-0.5625 0.60547 0.035156 0.91406 0.023438 1.8516 0.015625 2.7617-0.015625 1.332-0.027344 2.7109 0.09375 4.082 0.003906 0.039063 0.007813 0.10547 0.011719 0.17969-0.67188 0.015625-1.3516 0.035156-2.0352 0.050781-0.011719-0.1875-0.023438-0.33594-0.023438-0.33594-0.11719-1.3125-0.10156-2.6602-0.089844-3.9648 0.007813-0.92188 0.019532-1.875-0.015625-2.8164-0.003906-0.14063 0.023438-0.30469 0.054688-0.47656 0.070312-0.39453 0.15625-0.89062-0.097657-1.4102-0.14062-0.29297-0.49219-0.41016-0.78516-0.26953-0.29297 0.14062-0.41016 0.49219-0.26953 0.78516 0.082031 0.17188 0.054687 0.375 0 0.69531-0.039063 0.21484-0.082031 0.46094-0.070313 0.72266 0.035157 0.91406 0.023438 1.8516 0.015626 2.7617-0.015626 1.332-0.027344 2.7109 0.09375 4.082 0.003906 0.0625 0.011718 0.16016 0.015624 0.26172-0.80078 0.019531-1.6055 0.039063-2.4062 0.058594-0.011718-0.12109-0.023437-0.24609-0.035156-0.375-0.050781-0.52734-0.10938-1.125-0.089844-1.5273l0.039063-0.69922c0.11328-2.0234 0.22656-4.1133-0.007813-6.2109-0.019531-0.16797-0.039062-0.33984-0.0625-0.51172-0.10156-0.80078-0.20312-1.5547 0-2.2734 0.085938-0.3125-0.09375-0.63672-0.40625-0.72266-0.30859-0.085937-0.63672 0.09375-0.72266 0.40625-0.26562 0.94922-0.14453 1.9023-0.035156 2.7422 0.019531 0.16406 0.042969 0.32812 0.0625 0.49219 0.22266 2 0.11719 3.9531 0 6.0195l-0.039062 0.70312c-0.027344 0.49219 0.035156 1.1094 0.09375 1.7031 0.007812 0.097656 0.019531 0.19141 0.027343 0.28516-0.91797 0.019531-1.8242 0.027344-2.7227 0.035156 0.011719-0.98828 0.007813-2.0039 0-3.0391-0.007813-1.6641-0.019531-3.3867 0.039063-4.9688 0.10937-2.8672 0.054687-5.7383 0-8.207l-0.019532-0.76172c-0.003906-0.14062-0.007812-0.27344-0.011718-0.40625 0.625 0.082031 1.082 0.26953 1.4336 0.80469 0.16797 0.25781 0.69141 0.64062 2.6875 2.043 1.6484 1.1562 4.4062 3.0938 4.7266 3.625 0.20703 0.33984 0.46484 0.70703 0.76172 1.0742 0.007813 0.011718 0.015626 0.019531 0.023438 0.027344 0.64844 0.80469 1.4766 1.5977 2.4023 2.1094 0.011718 0.17188 0.011718 0.33984 0.03125 0.51172l0.058594 0.55078c0.20703 1.9727 0.45703 4.3867 0.28906 6.3633-0.57422 0.007812-1.1523 0.019531-1.7422 0.035156zm-8.4062-17.18c0.16016-0.30078 0.25-0.29687 0.35938-0.29297 0.3125 0.023437 0.75 0.12891 1.0742 0.51172 0.24219 0.28516 0.37891 0.71094 0.43359 1.2344-0.83203-0.58594-1.6016-1.1367-1.7227-1.2617-0.042969-0.070313-0.097656-0.125-0.14453-0.19141zm5.5781 4.1055c0.015624-0.054687 0.039062-0.10938 0.050781-0.16406 0.03125-0.12109 0.078125-0.29297 0.11719-0.39062 0.16016 0.042968 0.44531 0.1875 0.73828 0.53125 0.19531 0.23438 0.45703 0.64844 0.62109 1.2695-0.35547-0.33984-0.875-0.75781-1.5273-1.2461zm-6.6914-9.0586c3.5547 2.8242 6.7617 5.3633 10.043 7.8711 0.41016 0.3125 0.57031 0.60156 0.65234 1.1914 0.14453 1.0469 0.14062 2.0898 0.13281 3.1914 0 0.32422 0 0.65234 0.003906 0.98438-0.45312-0.34375-0.90234-0.77734-1.3125-1.2656 0.125-1.9883-0.57422-3.1641-1.0195-3.6914-0.47656-0.5625-1.082-0.92188-1.625-0.95703-0.75781-0.054687-1.0352 0.53125-1.1797 1.0039-0.46875-0.33594-0.97656-0.69922-1.5234-1.082 0.0625-1.2109-0.16797-2.168-0.72266-2.8203-0.45703-0.54297-1.1289-0.87109-1.8867-0.92188-0.67188-0.046875-1.082 0.30469-1.3438 0.6875-0.44531-0.23438-0.92578-0.33594-1.3945-0.38281-0.054688-2.207-0.085938-3.7891-0.09375-4.7422 0.039062 0.027344 0.078125 0.054687 0.11328 0.082031 0.38672 0.26953 0.77734 0.55078 1.1562 0.85156zm-14.082-3.3867c-0.023438-0.62109-0.046875-1.3672-0.050781-1.8359-0.003907-0.64844-0.007813-1.3828 0.09375-1.4961 0.089843-0.097657 0.75781-0.125 1.3594-0.14844 0.046875 0.50391 0.10156 1.0078 0.16016 1.5039 0.082031 0.6875 0.15625 1.3477 0.19922 1.9492-0.16797 0.003906-0.33203 0.003906-0.49219 0.007813-0.44531 0.007812-0.87891 0.011718-1.2695 0.019531zm1.3203-4.6484c-2.3164 0.09375-2.5547 0.375-2.543 2.8203 0.003906 0.48828 0.023437 1.2227 0.050781 1.8438-0.20703 0-0.35547 0-0.40234-0.003906-0.41797-0.027344-2.125-0.046876-4.5742-0.058594-0.011718-0.11328-0.023437-0.22266-0.035156-0.33984-0.089844-0.90234-0.19141-1.9258-0.47656-2.8086-0.33203-1.0234-1.0117-1.1602-1.5703-1.1641-0.58594-0.003906-1.2227 0.007812-1.8477 0.10938-1 0.16406-1.5312 1.1758-1.3633 2.582l0.050781 0.38281c0.054687 0.40234 0.11719 0.83984 0.097656 1.2227-2.2305-0.003907-4.6641-0.003907-7.1055-0.003907-0.054687-0.65625-0.11719-1.3828-0.14062-1.9883-0.03125-0.71484-0.27734-1.3008-0.71484-1.6914s-1.0508-0.57031-1.7656-0.52344c-2.7344 0.19141-2.957 2.0039-2.9766 4.207-2.3203 0.003906-4.4961 0.007812-6.3438 0.011719-0.015625-0.39063-0.027344-0.82031-0.042968-1.2344l-0.03125-0.85937c-0.058594-1.6367-0.64453-2.1172-2.2383-2.1172h-0.89453c-0.027344-0.78125-0.070313-0.50391-0.14844-0.71094-0.015626-0.039062-0.027344-0.12891-0.042969-0.16406 1.4609-0.003906 3.668-0.039062 4.5273-0.097656 1.3672-0.089844 2.7656-0.13281 4.1172-0.15625 1.0234-0.019532 2.0508-0.046875 3.0742-0.09375 1.8555-0.082032 3.75-0.085938 5.582-0.082032 2.2227 0.003907 4.5195 0.003907 6.7852-0.14453 1.0586-0.070312 2.1523-0.046875 3.2109-0.027343 0.34375 0.007812 0.68359 0.011718 1.0234 0.015624 0.50391 0.003907 1.0078 0.027344 1.5156 0.046876 0.94922 0.039062 1.9297 0.078124 2.9062 0.019531 0.38281-0.023438 1.082-0.039063 2.3047-0.007813-0.007813 0.33203-0.003906 0.67188 0.011718 1.0156zm-11.543 3.2031-0.046875-0.35938c-0.082031-0.69531 0.078125-1.2344 0.38672-1.2852 0.53906-0.085937 1.1133-0.097656 1.6523-0.09375 0.28125 0 0.34766 0.003906 0.46094 0.35156 0.24609 0.76172 0.33594 1.6797 0.42578 2.5625 0.007812 0.074218 0.015625 0.14453 0.023438 0.21875-0.86719-0.003907-1.8086-0.003907-2.7969-0.007813 0.011719-0.48047-0.046874-0.96875-0.10547-1.3867zm-9.3477 1.3789c-1.0938 0-2.1797 0-3.25 0.003907 0.023437-2.1758 0.22656-2.918 1.8828-3.0352 0.39844-0.027343 0.70312 0.046876 0.90234 0.22656 0.19922 0.17969 0.30859 0.46875 0.32422 0.86719 0.03125 0.58984 0.085938 1.293 0.14063 1.9375zm-6.6953-9.082c0.058594-0.60156 0.14453-1.293 0.26172-2.0469 1.5508-0.027344 3.0859-0.054687 4.3359-0.074218-0.085937 0.78906-0.14062 1.4609-0.16406 1.9727-1.4453 0.046875-2.9531 0.097656-4.4336 0.14844zm-4.0078 0.14062c0.003907-0.082031 0.007813-0.16016 0.007813-0.24609 0.019531-0.58203 0.039063-1.3047 0.21094-1.6094 0.039063-0.070313 0.078126-0.15625 0.11328-0.25781 0.71484-0.011719 1.4805-0.027344 2.2812-0.042969 0.15234-0.003906 0.30859-0.003906 0.46484-0.007812-0.11328 0.76562-0.19531 1.4609-0.25391 2.0664-0.97266 0.03125-1.9258 0.066406-2.8242 0.097656zm-2.7422-4.5234c0.046875-0.375 0.25781-1.0312 0.53516-1.7539 0.57812 0.089844 1.457 0.15234 2.5117 0.19922-0.33984 1-0.58203 1.8789-0.76562 2.5508-0.023437 0.085938-0.046875 0.17188-0.070313 0.25781-1.0039 0.015625-1.8555 0.03125-2.4297 0.035156 0.082031-0.4375 0.16406-0.87109 0.21875-1.2891zm5.9375-9.375c0.42188 0.023437 0.86328 0.046875 1.3164 0.078125-0.63672 0.76172-1.1992 1.5391-1.6875 2.3203-0.72266-0.03125-1.2891-0.039062-1.7344-0.039062 0.70312-0.79297 1.4648-1.6484 2.1055-2.3594zm2.8047 0.17969c0.36719 0.027344 0.73047 0.054688 1.0898 0.082032-0.48047 0.75-0.91016 1.5234-1.2891 2.3086-0.58984-0.042969-1.125-0.074219-1.6055-0.10547 0.51953-0.77344 1.1211-1.543 1.8047-2.2852zm22.012 2.0977c-0.58203 0.058594-1.375 0.125-2.3086 0.19922-0.44531-0.73047-1-1.5117-1.7031-2.332 0.875-0.0625 1.6133-0.12109 2.1523-0.16406 0.47656 0.49609 1.1406 1.2578 1.8594 2.2969zm2.3711 4.4102c-0.61328 0.039062-1.582 0.066406-2.7734 0.089843-0.054688-0.15234-0.11328-0.31641-0.17188-0.48437-0.24219-0.69922-0.5625-1.6211-1.1055-2.6914 1.043-0.085937 1.8789-0.16406 2.3906-0.22656 0.57422 0.94531 1.1484 2.0469 1.6602 3.3125zm1.1445 3.6719c-0.74219 0.078125-1.7891 0.13672-2.5 0.16797-0.31641-1.0039-0.67188-1.9805-0.90234-2.5938 1.168-0.027343 2.1094-0.066406 2.6875-0.11719 0.27344 0.79688 0.51172 1.6445 0.71484 2.543zm-20.16 0.097656c-0.23828-0.011719-0.75-0.011719-1.4414-0.007812 0.10547-0.78516 0.23828-1.6445 0.40625-2.5508 0.25-0.003906 0.47656-0.007812 0.66797-0.007812 0.27344 0.023437 1.6406 0.050781 3.5469 0.074218 0.019531 0.91016 0.03125 1.6289 0.015624 1.9961-0.007812 0.19531 0 0.40625-0.003906 0.60547-1.1094-0.023437-2.1875-0.0625-3.1914-0.10938zm14.965-3.7852c0.015625 0.042968 0.027344 0.082031 0.042968 0.12109-0.98828 0.011718-2.0703 0.023437-3.1953 0.027343-0.34375-0.94531-0.71875-1.9258-1.1289-2.9102 1.0547-0.066406 2.0781-0.14062 3.0078-0.21094 0.65625 1.1992 1.0117 2.2227 1.2734 2.9727zm-7.4805 0.15625c-0.066406-0.85156-0.19922-1.7656-0.37891-2.7031 0.77734-0.039063 1.5742-0.085938 2.3672-0.13281 0.39844 0.95703 0.76562 1.9141 1.1055 2.8398-1.0312-0.003906-2.0781-0.003906-3.0938-0.003906zm-3.2734-3.7578c-0.023438-0.80078-0.050782-1.6172-0.070313-2.4219 0.30469-0.011718 0.61719-0.027344 0.9375-0.039062 0.21094 0.78125 0.41797 1.5898 0.60156 2.3984-0.51172 0.023438-1.0039 0.042969-1.4688 0.0625zm-0.14453-5.9023c0.21094 0.68359 0.44531 1.4531 0.68359 2.2812-0.22266 0.011718-0.43359 0.019531-0.64453 0.027343-0.015625-0.82812-0.03125-1.6094-0.039063-2.3086zm2.207 3.3789c0.52344-0.027344 1.0508-0.058594 1.582-0.089844 0.39062 0.76172 0.76562 1.5586 1.1211 2.375-0.71094 0.042969-1.4258 0.082031-2.1172 0.11719-0.17578-0.80859-0.375-1.6172-0.58594-2.4023zm-0.32031-1.1562c-0.36328-1.2773-0.72656-2.4414-1.0117-3.3555 0.78516 0.82031 1.5625 1.9688 2.3047 3.2891-0.44141 0.019531-0.875 0.042968-1.293 0.066406zm-3.0625-3.043c0 0.90234 0.019531 1.9922 0.046875 3.1641-0.64453 0.019531-1.1836 0.023437-1.6094 0.019531 0.45703-1.1094 0.97656-2.1875 1.5625-3.1836zm-2.0156 4.3477c0.21875 0.007813 0.47266 0.015625 0.76953 0.015625 0.38672 0 0.83594-0.007812 1.3203-0.023437 0.023437 0.79688 0.046875 1.6094 0.070312 2.418-1.3398 0.035156-2.3203 0.03125-2.6211-0.035157-0.10547-0.011719-0.20312-0.019531-0.30859-0.027343 0.23047-0.78516 0.48828-1.5703 0.76953-2.3477zm-0.64453 3.5312c0.24219 0.054688 0.77734 0.078125 1.5195 0.078125 0.39062 0 0.83594-0.007812 1.3242-0.019531 0.027343 0.87891 0.054687 1.7344 0.078125 2.5117-1.7891-0.019532-3.1016-0.046875-3.4727-0.078125-0.15625 0-0.32031 0.003906-0.48438 0.003906 0.17188-0.82422 0.36719-1.6758 0.59375-2.5391 0.14844 0.015626 0.29688 0.03125 0.44141 0.042969zm4.0156 0.023438c0.53125-0.019531 1.0938-0.042969 1.6758-0.070313 0.17969 0.92188 0.31641 1.8164 0.38672 2.6406-0.69141-0.003906-1.3555-0.007812-1.9844-0.011719-0.019531-0.77734-0.046875-1.6445-0.078125-2.5586zm5.9453-1.4922c-0.35547-0.80859-0.72656-1.6055-1.1133-2.375 0.71094-0.046875 1.4062-0.089843 2.0703-0.13672 0.76562 0.8125 1.3711 1.5938 1.8594 2.3242-0.88672 0.066407-1.8438 0.12891-2.8164 0.1875zm-1.7109-3.5117c-0.51172-0.9375-1.043-1.8125-1.5898-2.5781 1.2344 0.84375 2.2695 1.6758 3.1445 2.4805-0.52734 0.035156-1.043 0.070313-1.5547 0.097656zm-6.6211-3.4531c-0.66797 1.1445-1.25 2.3828-1.7539 3.6562-0.41406-0.039063-1.2148-0.10938-2.2188-0.19531 1.0859-1.3398 2.3984-2.5312 3.9727-3.4609zm-2.1797 4.7969c-0.27734 0.77734-0.52734 1.5625-0.75 2.3477-1.207-0.10938-2.2852-0.19922-3.2383-0.27344 0.40234-0.78906 0.85938-1.5586 1.3672-2.2969 1.1133 0.089844 2.0586 0.17578 2.6211 0.22266zm-1.0625 3.4922c-0.23438 0.90625-0.4375 1.7969-0.61328 2.6562-1.2812 0.007812-2.6328 0.011719-3.957 0.003906 0.30469-0.97266 0.66797-1.957 1.1016-2.9375 1.1172 0.082032 2.293 0.17578 3.4688 0.27734zm-0.83594 3.8281c-0.16406 0.91016-0.29688 1.7695-0.39844 2.5547-1.2109 0.015626-2.7109 0.042969-4.2773 0.070313 0.15625-0.82812 0.35156-1.7109 0.59766-2.6172 1.4727 0.007812 2.9102 0.003906 4.0781-0.007813zm6.5742 0.066406c0.68359 0.007813 1.4141 0.011719 2.168 0.015625 0.12891 0.53906 0.31641 1.5 0.50391 2.5039-0.89844 0.050782-1.7891 0.074219-2.668 0.074219 0-0.19141 0.003906-0.38281 0.011719-0.56641 0.011718-0.39062 0.003906-1.1094-0.015625-2.0273zm3.3633 0.019531c0.66016 0 1.332 0.003907 2.0078 0.003907h1.2656c0.30078 0.87109 0.57031 1.6914 0.79687 2.4336-1.0391 0.13281-2.6914 0.09375-3.5742 0.0625-0.16797-0.92578-0.34375-1.8359-0.49609-2.5zm4.5078-0.003906c1.1602-0.003906 2.2773-0.015625 3.2852-0.03125 0.28516 0.74219 0.62891 1.6914 0.92969 2.6094-1 0.003907-2.5312-0.089843-3.4336-0.14844-0.22266-0.74219-0.48437-1.5586-0.78125-2.4297zm-0.61328-8.9492c-1.1328-1.1445-2.5625-2.3398-4.3828-3.5508 2.1523 0.63672 4.2734 1.7734 6.3555 3.4062-0.65234 0.050782-1.3125 0.097656-1.9727 0.14453zm-15.125 0.10156c-0.24609-0.019531-0.49609-0.039062-0.75-0.058594 0.69141-0.62891 1.4609-1.2227 2.3086-1.7695-0.56641 0.57812-1.0859 1.1875-1.5586 1.8281zm-2.5781 4.5742c-0.42969 1.0078-0.78516 2.0195-1.0859 3.0117-0.77734-0.007813-1.5273-0.019532-2.2227-0.035157 0.39453-0.98047 0.88672-2.0273 1.5078-3.0898 0.55859 0.035156 1.1641 0.070312 1.8008 0.11328zm-1.4141 4.1875c-0.24219 0.92578-0.43359 1.8164-0.58594 2.6523-0.22656 0.003907-0.45703 0.007813-0.68359 0.011719-0.65234 0.011719-1.293 0.023438-1.9062 0.035157 0.19922-0.71875 0.46484-1.668 0.84375-2.7461 0.74219 0.023437 1.5312 0.039062 2.332 0.046875zm5.9219 3.7188c0.74609-0.007813 1.293-0.007813 1.5312 0.003906 1.0234 0.046875 2.125 0.085937 3.2539 0.10547 0.011719 0.38672 0.023437 0.77734 0.039063 1.1602 0.007812 0.19141 0.011718 0.36719 0.019531 0.55078-1.3477 0.023438-3.0938 0.070313-5.0117 0.12891 0.027344-0.51172 0.082031-1.1758 0.16797-1.9492zm6.0117 1.8086c-0.007813-0.19531-0.011719-0.37891-0.019532-0.58203-0.015625-0.36719-0.027344-0.74219-0.039062-1.1094 0.94922 0 1.9062-0.027344 2.8633-0.085937 0.125 0.71094 0.23828 1.3672 0.31641 1.8359-0.57031 0.007813-1.1328 0.003906-1.6875-0.042968-0.21484-0.019532-0.71875-0.023438-1.4336-0.015626zm4.2969 0.03125c-0.070312-0.42578-0.17969-1.0742-0.30469-1.7969 0.98438 0.03125 2.6445 0.054687 3.6992-0.10547 0.20703 0.74219 0.35938 1.3398 0.4375 1.7461-0.050782 0.003907-0.10156 0.007813-0.15625 0.007813-1.0039 0.0625-1.875 0.11328-2.3164 0.11328-0.44922 0.007813-0.90234 0.023438-1.3594 0.035156zm5.0039-0.22266c-0.074219-0.41016-0.19922-0.96094-0.37891-1.625 1.0508 0.066406 2.5586 0.14844 3.4492 0.11719 0.15234 0.53516 0.26562 1.0117 0.32422 1.3789-0.97266 0.007812-2.125 0.058594-3.3945 0.12891zm4.5703-0.10938c-0.050781-0.41016-0.16016-0.91406-0.30078-1.4453 0.73047-0.035157 1.6797-0.09375 2.3828-0.17188 0.10156 0.58984 0.18359 1.1992 0.24609 1.832l-1.1914-0.078125c-0.28516-0.070312-0.67188-0.11328-1.1367-0.13672zm-15.941-20.145c0.22266-0.24609 0.53516-0.37109 0.96094-0.38672 0.38281-0.011719 0.67578 0.085938 0.87891 0.30078 0.23047 0.23828 0.33984 0.59766 0.39453 0.91797-0.066406-0.007812-0.13281-0.015625-0.19922-0.023437-0.089843-0.027344-0.17969-0.03125-0.26562-0.015625-0.12109-0.007813-0.23828-0.011719-0.35547-0.015625-0.003907 0-0.007813-0.003906-0.007813-0.003906-0.011719-0.003907-0.023437-0.003907-0.035156-0.007813-0.023438-0.007813-0.042969-0.015625-0.066407-0.019531-0.011718 0-0.019531-0.007813-0.03125-0.007813h-0.003906c-0.011718 0-0.019531 0.003907-0.03125 0.003907-0.015625 0-0.027344-0.003907-0.042968-0.003907-0.015626 0-0.03125 0.003907-0.050782 0.003907-0.023437 0-0.042968-0.042969-0.0625-0.035157-0.019531-0.003906-0.03125-0.050781-0.039062-0.050781h-0.003906c-0.003907 0-0.007813 0.050781-0.011719 0.050781-0.007813 0-0.011719 0.027344-0.019531 0.027344-0.46875-0.007813-0.92578 0.023437-1.3711 0.054687 0.054687-0.26953 0.16016-0.56641 0.36328-0.78906zm-3.6875 2.582c-1.8008 0.96875-3.2852 2.1367-4.5195 3.3984-0.44141-0.03125-0.87891-0.058594-1.3047-0.085938 0.16406-0.17969 0.29688-0.31641 0.375-0.39062 0.015625-0.015625 2.1055-1.8828 5.4492-2.9219zm-10.41 8.4297c0.027343-0.019531 0.050781-0.046875 0.074219-0.070313 0.10156-0.11328 0.21094-0.23828 0.32422-0.36719 0.29688-0.054688 1.0586-0.054688 2.125-0.015625-0.58984 1.0781-1.0586 2.1367-1.4336 3.1172-1.0625-0.035156-1.9297-0.082031-2.4727-0.14453 0.51172-1.1797 1.0938-2.2891 1.3828-2.5195zm-2.8359 7.8398c0.50391 0 1.2891-0.011718 2.2695-0.03125-0.17578 0.52344-0.20703 1.1719-0.22656 1.8086-0.003906 0.11328-0.007812 0.21875-0.011719 0.32422-0.86328 0.03125-1.6562 0.0625-2.3555 0.089844 0.039063-0.70312 0.17188-1.4492 0.32422-2.1914zm-1.4648 4.7148c-0.11719-0.027344-0.24609-0.046875-0.38672-0.058594l-0.32422-0.023437c-0.41016-0.03125-0.80078-0.058594-1.1797-0.12109-0.15625-0.027343-0.33594-0.058593-0.28516-0.57422 0.039063-0.40625 0.14844-0.44531 0.42188-0.46094 0.27734-0.011719 0.76172 0.10156 2.3242 0.054687v0.14844h-0.011719 0.003907c0.96094 0 2.1484 0 3.4766-0.78125h0.007812c0.003907 0 0.003907 0.070312 0.007813 0.070312 1.2344-0.046874 2.5859-0.070312 3.9766-0.070312h0.007812l0.097656 0.10547c1.8711-0.0625 3.3711-0.089844 5.7148-0.14453v0.039062h-0.17578 0.003906c2.4727 0 4.7031-0.058594 6.2188-0.078125 0.003906 0 0.003906 0.078125 0.007813 0.078125h0.015624l0.003907-0.066406c0.41797-0.007813 0.78906-0.042969 1.0859-0.042969 0.38281 0 0.65625-0.011719 0.79297 0 0.82031 0.070313 1.6445 0.046875 2.4531 0.027344 0.003906 0 0.011719 0.042969 0.015625 0.042969 0.023437 0 0.046875 0.035156 0.070313 0.035156h0.003906c0.12109 0 0.24609-0.050782 0.36719-0.054688 0.47656-0.015625 0.94922-0.054687 1.4219-0.054687 0.47656 0 1.3203-0.0625 2.3867-0.12891 2.2773-0.13672 5.7148-0.35547 6.707-0.082031 0.035156 0.011719 0.074219 0.011719 0.11328 0.015625l3.1172 0.21484 0.83203 0.039062c0.40234 0.019532 0.80469 0.035157 1.207 0.058594 0.38281 0.023438 0.47656 0.03125 0.53906 0.82031 0.03125 0.42188-0.046875 0.53516-0.066406 0.55078-0.035156 0.035156-0.14062 0.078125-0.34766 0.078125-0.48438 0.003906-0.96484-0.011719-1.4453-0.027344l-0.60156-0.019531c-2.7891-0.12109-4.0938-0.10547-4.6992-0.066406-0.91797 0.054687-1.8672 0.015625-2.7852-0.019532-0.51563-0.019531-1.0312-0.042968-1.5469-0.046874-0.33594-0.003907-0.67578-0.011719-1.0156-0.015626-1.082-0.023437-2.2031-0.042968-3.3125 0.03125-2.2266 0.14844-4.5039 0.14453-6.707 0.14063-1.8438-0.003907-3.7539-0.003907-5.6367 0.082031-1.0156 0.046875-2.0273 0.066406-3.043 0.085937-1.3672 0.027344-2.7773 0.054688-4.1719 0.14844-0.82812 0.054687-3.0156 0.0625-4.4609 0.070312-0.53125-0.003906-0.96484-0.003906-1.1992 0zm1.3516 6.2773c0-0.51172-0.042969-1.0938-0.13281-1.4961-0.089844-0.40234-0.019532-0.91406 0.074218-1.3945 0.023438-0.13672 0.039063-0.51562 0.0625-0.51562h0.9375c0.92969 0 1.0312 0.13281 1.0703 1.1836l0.03125 1.0039c0.015625 0.39844 0.046875 0.83984 0.0625 1.2227-0.79688 0-1.3242 0.023438-2.1055 0.027344v-0.03125zm-4.7656 1.1992c1.0547 0.019531 1.9688 0.035156 2.4258 0.011719 0.19141-0.007813 0.80078-0.015626 1.707-0.023438 0.007812 0 0.015624 0.003906 0.023437 0.003906h0.035156c0.003907 0 0.007813-0.003906 0.015625-0.003906 2.2148-0.015625 6.1914-0.019531 10.625-0.019531 0.039063 0.007812 0.074219 0.023437 0.11719 0.023437 0.042968 0 0.078125-0.015625 0.11719-0.023437 9.4766 0.003906 20.902 0.050781 21.641 0.10156 0.10547 0.007813 0.46094 0.011719 1.0898 0.011719h0.023438c0.45703 0 1.0547 0.007812 1.8242-0.003906 0.35156-0.007813 0.71484 0.003906 1.0898 0.003906h0.011719c2.5938 0 5.6211-0.11328 6.6719-0.066406 0.24219 0.011718 0.49219-0.011719 0.75-0.019532 0.63281-0.015624 1.2344-0.042968 1.5938 0.26172 0.078125 0.066407 0.16016 0.12109 0.23828 0.18359-0.019531 0.60938-0.003906 2.0273 0.082031 5.5391-0.089844-0.003907-0.1875-0.011719-0.29688-0.019532-0.34375-0.019531-0.66016-0.039062-0.96094-0.054687 0.003906-0.38672 0.003906-0.79688-0.027344-1.1367-0.027344-0.32812-0.082031-0.9375-0.57031-1.25-0.3125-0.19922-0.71094-0.21094-1.1719-0.042969-0.035156 0.007813-0.13672-0.003906-0.20312-0.007812-0.125-0.011719-0.28516-0.023438-0.44922-0.003907-1.8867 0.22656-2.293 0.71484-2.3516 2.3359-0.023437 0.003906-0.046875 0.011719-0.0625 0.015625-0.15234 0.007813-0.50781 0.011719-0.97266 0.007813-0.10938-0.96875-0.51953-1.9766-0.57422-2.1094-0.066406-0.16016-0.20312-0.28125-0.37109-0.33203-0.75-0.22656-1.5039-0.16016-2.168-0.10547l-0.089844 0.007813c-0.96484 0.082031-1.5742 0.78906-1.5117 1.7617 0.011719 0.17188 0.007813 0.46484 0.003906 0.74609-0.44922 0-0.87109-0.003907-1.2656-0.003907-0.015626-0.81641-0.070313-1.4297-0.48828-1.8281-0.44141-0.42188-1.1016-0.43359-2.0586-0.40625-0.15625 0.003906-0.3125 0.027344-0.46875 0.050782-0.125 0.019531-0.25 0.042968-0.37109 0.039062-0.73828-0.03125-1.2695 0.13281-1.6289 0.48828-0.45703 0.44922-0.53906 1.1055-0.54297 1.8242-0.625 0.019531-1.332 0.039062-2.0938 0.058594-0.10938-0.80859-0.38281-1.9023-1.5078-1.9766-1.2695-0.085937-2.6211-0.003906-3.9258 0.078125-0.90234 0.054688-1.75 0.10547-2.6133 0.10938-1.5117 0.097657-1.5938 1.3789-1.5977 2.043-0.73437 0.019531-1.3555 0.035156-1.8203 0.046875-0.007812-0.29297-0.023438-0.59375-0.0625-0.82422-0.17578-0.96094-0.85156-1.5156-1.7734-1.4492-0.66797 0.050781-1.332 0.12109-1.9766 0.1875l-0.79688 0.082031c-0.17578 0.015625-0.33594 0.11328-0.43359 0.26172-0.32031 0.49219-0.35156 1.0391-0.30078 1.5352-0.64062-0.042969-1.2148-0.011719-1.6445-0.035156-0.18359-1.8711-0.68359-2.0859-3.0312-2.0859h-0.023438-0.11719c-0.55078 0-1.1172-0.035156-1.4922 0.33984-0.39844 0.39844-0.39062 0.92188-0.37891 1.5156 0 0.10547 0.019531 0.18359 0.039062 0.26953-0.65234 0.007812-1.2969 0.003906-1.8789 0.011719-0.015625-0.91016-0.10156-1.5391-0.53516-1.9219-0.51953-0.45703-1.2695-0.39062-2.4531-0.24609-0.13281 0.015625-0.26562 0.003906-0.39844-0.003906-0.32813-0.019532-0.73047-0.046875-1.1484 0.15625-0.16016 0.078125-0.27344 0.22266-0.3125 0.39453l-0.37891 1.6562c-0.79688 0.003906-1.7266 0.011719-2.6406 0.035156 0.023437-0.49609 0.046875-2 0.089843-5.8477l0.003907-0.34375c0.86328-0.050781 2.4727-0.023437 3.7227-0.003906zm-16.027 6.4805c1.8828-0.98047 3.6484-2.1875 5.3516-3.3594 1.0859-0.74219 2.207-1.5117 3.3359-2.207 1.1094-0.68359 1.6016-0.71875 2.2266-0.76562 0.066406-0.003906 0.14062-0.011718 0.21094-0.019531l-0.003906 0.19922c-0.027344 2.2266-0.0625 5.5898-0.085937 5.8555-0.003907 0.015626 0 0.027344-0.003907 0.042969-0.83203 0.035157-1.582 0.085938-2.0938 0.16016-0.25391-0.45703-0.61719-0.64453-0.91406-0.71484-1.1484-0.28516-2.4648 0.81641-2.8359 1.2227-0.42188 0.46094-0.4375 1.1484-0.046875 2.0391-0.10547 0.082032-0.19141 0.14844-0.24219 0.19141-0.46875 0.39062-1.1172 0.80859-1.7422 1.1445-0.050781-0.18359-0.12109-0.375-0.23828-0.58984-0.34375-0.61719-0.83984-1.1758-1.8984-0.61328-1.5781 0.83594-1.7344 1.8125-1.3125 3.1562-0.30859 0.17578-0.61328 0.35547-0.90625 0.54688 0.015626-1.7227 0.011719-3.1328-0.019531-3.6914-0.0625-1.2109 0.11719-2.0234 1.2188-2.5977zm6.1094 1.7109c-0.10938-0.32812-0.082031-0.48047-0.054687-0.50781 0.37891-0.41406 1.2695-0.98437 1.6875-0.875 0.019531 0.003907 0.0625 0.019532 0.10938 0.066407-0.41797 0.31641-1.1211 0.84375-1.7422 1.3164zm-4.2578 2.832c-0.33203 0.21094-0.69922 0.41406-1.0938 0.625-0.23438-0.87109 0.027344-1.1328 0.8125-1.5508 0.085937-0.046875 0.14062-0.070313 0.17969-0.082031 0.03125 0.039062 0.078125 0.10547 0.14453 0.23047 0.30859 0.55469 0.12109 0.67188-0.042968 0.77734zm-3.2617 12.5c-0.015625-0.32031-0.027344-0.63672-0.011719-0.96094 0.089844-1.6445 0.17188-5.2344 0.21094-8.3359 0.53516-0.44531 1.2109-0.83594 1.9023-1.2109 0.011718-0.003906 0.019531-0.011719 0.03125-0.015625 0.10937-0.058594 0.22266-0.12109 0.33203-0.17969 0.50781-0.27344 0.98828-0.53125 1.4258-0.80859 0.10156-0.0625 0.22656-0.16016 0.35156-0.28906 0.92188-0.38281 2.0586-1.1484 2.8242-1.7852 0.078125-0.0625 0.26172-0.48047 0.50391-0.48047h0.003906c0.007812 0 0.011718 0.070312 0.019531 0.066406 0.71484-0.54688 1.9258-1.418 2.6719-1.9805 0.29297-0.082032 1.1172-0.12109 2.2109-0.16406 0.027343 0.8125 0.058593 1.8789 0.0625 2.3984 0.007812 1.4609 0.027343 2.9258 0.042968 4.3867 0.015625 1.457 0.035156 2.918 0.042969 4.3789 0.003906 0.55469-0.019531 1.1133-0.046875 1.6719-0.046875 1.0625-0.09375 2.1641 0.050781 3.2695 0.019531 0.16016 0.011719 0.35547 0 0.55859-0.003906 0.050781-0.003906 0.10547-0.003906 0.15625-0.82422 0.011718-1.6445 0.023437-2.4648 0.039062-0.03125-0.36719-0.003906-0.8125 0.019531-1.1719 0.015626-0.1875 0.027344-0.36328 0.03125-0.51562 0.035157-1.0938-0.003906-2.1953-0.039062-3.2578-0.046875-1.3828-0.09375-2.8125 0.019531-4.2031 0.078125-0.9375 0.14453-1.8711 0.21094-2.8086l0.085937-1.1875c0.023438-0.32422-0.21875-0.60156-0.54297-0.62891-0.32031-0.023437-0.60156 0.21875-0.62891 0.54297l-0.085937 1.1875c-0.066406 0.93359-0.13281 1.8633-0.20703 2.7969-0.11719 1.457-0.070312 2.9219-0.023437 4.3398 0.035156 1.0469 0.070313 2.1289 0.039063 3.1836-0.003907 0.14062-0.015626 0.29688-0.027344 0.46875-0.027344 0.39453-0.054688 0.84375-0.023438 1.2773-0.61719 0.011718-1.2344 0.019531-1.8516 0.03125-0.10938 0-0.21875 0.003906-0.32812 0.003906-0.011719-0.21094-0.023438-0.42578-0.039063-0.64844-0.050781-0.78125-0.10156-1.5938-0.066406-2.2539 0.125-2.4062 0.26172-5.207 0.27734-8.0078 0-0.32422-0.25781-0.58594-0.58203-0.58984-0.32031 0.027344-0.58594 0.25781-0.58984 0.58203-0.015625 2.7734-0.15234 5.5586-0.27734 7.9531-0.039063 0.72656 0.015625 1.5742 0.066406 2.3867 0.011719 0.20312 0.027344 0.40234 0.035157 0.59375-0.79297 0.015625-1.582 0.027343-2.3828 0.039062 0-0.74219 0.058594-1.5312 0.11719-2.3008 0.042969-0.53125 0.082032-1.0508 0.10156-1.5469 0.023437-0.56641 0.015625-1.1328 0.007813-1.6992-0.011719-0.91016-0.023438-1.7656 0.089843-2.625 0.042969-0.32031-0.18359-0.61719-0.50391-0.65625-0.32422-0.042968-0.61719 0.18359-0.65625 0.50391-0.125 0.94531-0.11328 1.8867-0.097656 2.7969 0.007812 0.54687 0.015625 1.0898-0.007813 1.6367-0.019531 0.48047-0.058594 0.98828-0.097656 1.5039-0.0625 0.80078-0.12109 1.6211-0.12109 2.4102-0.69531 0.011719-1.3867 0.023437-2.082 0.03125 0.019531-0.30469 0.011719-0.59766 0-0.88281z"/>
 </g>
</svg>
