<?xml version="1.0" encoding="UTF-8"?>
<svg width="100pt" height="100pt" version="1.1" viewBox="0 0 100 100" xmlns="http://www.w3.org/2000/svg">
 <g fill="#c58d20">
  <path d="m48.082 62.453c-5.8008 0-10.516 4.7109-10.516 10.504s4.7188 10.504 10.516 10.504 10.516-4.7109 10.516-10.504-4.7148-10.504-10.516-10.504zm0 19.133c-4.7656 0-8.6406-3.8711-8.6406-8.6289 0-4.7578 3.875-8.6289 8.6406-8.6289s8.6406 3.8711 8.6406 8.6289c0 4.7578-3.875 8.6289-8.6406 8.6289z"/>
  <path d="m94.062 93.062h-37.09c7.7227-3.418 13.121-11.145 13.121-20.105 0-8.1055-4.3906-15.453-11.496-19.316v-23.75h10.559c0.51953 0 0.9375-0.42188 0.9375-0.9375v-11.477c0-0.51953-0.42188-0.9375-0.9375-0.9375h-10.559v-10.543c0-0.51953-0.42188-0.9375-0.9375-0.9375h-19.156c-0.51953 0-0.9375 0.42188-0.9375 0.9375v47.645c-7.1055 3.8594-11.496 11.207-11.496 19.316 0 8.9648 5.3984 16.688 13.121 20.105h-33.254c-0.51562 0-0.9375 0.42188-0.9375 0.94141 0 0.51953 0.42188 0.9375 0.9375 0.9375h88.125c0.51953 0 0.9375-0.42188 0.9375-0.9375 0-0.51953-0.42188-0.94141-0.9375-0.94141zm-66.113-20.105c0-7.5938 4.2109-14.457 10.984-17.914 0.3125-0.16016 0.51172-0.48047 0.51172-0.83594l-0.003906-47.27h17.281v10.539c0 0.51953 0.42188 0.9375 0.9375 0.9375h10.559v9.6055h-10.559c-0.51953 0-0.9375 0.42188-0.9375 0.9375v25.254c0 0.35156 0.19922 0.67578 0.51172 0.83594 6.7734 3.4609 10.98 10.324 10.98 17.914 0 11.086-9.0312 20.105-20.137 20.105-11.098 0-20.129-9.0234-20.129-20.109z"/>
 </g>
</svg>
