<?xml version="1.0" encoding="UTF-8"?>
<svg width="100pt" height="100pt" version="1.1" viewBox="0 0 100 100" xmlns="http://www.w3.org/2000/svg">
 <g fill="#c58d20">
  <path d="m86.309 83.34c-0.33203-1.8359-1.0938-3.5938-2.1875-5.1172-0.097656-0.11719-0.27344-0.39062-0.58594-0.56641-0.66406-0.35156-1.0156-0.19531-1.582-0.21484v-20.82c0-0.48828-0.29297-0.91797-0.74219-1.0938-0.17578-0.058594-0.48828-0.19531-0.66406-0.25391l-0.74219-6.6992c-0.078126-1.2305-0.85938-2.0898-2.2461-2.0117-0.21484-0.50781-0.39062-1.3086-0.56641-1.875-0.13672-0.44922-0.52734-0.78125-0.99609-0.83984-1.0938-0.11719-2.168-0.33203-3.2227-0.625-0.25391-1.0547-0.9375-2.4219-2.3438-2.8125 0.25391-1.0156 0.27344-2.0703 0.058593-3.0859-0.097656-0.44922-0.44922-0.80078-0.91797-0.89844-0.82031-0.15625-1.6406-0.41016-2.4219-0.72266-0.097657-0.97656-0.17578-1.9531-0.27344-2.9297-0.058594-0.60547-0.58594-1.0742-1.1914-1.0547-1.0938 0.019531-2.2461 0.11719-3.3594 0.21484-1.0742 0.097656-2.1875 0.17578-3.2227 0.21484-0.64453 0.019531-1.1523 0.54687-1.1328 1.1914 0.039062 1.2891-0.11719 2.5586-0.46875 3.8086-0.3125 1.0938-0.11719 1.9141 1.1523 2.5977-0.37109 0.48828-0.76172 0.99609-1.0742 1.5234l-5.1367 1.4844c-0.15625 0.039063-0.29297 0.11719-0.41016 0.21484l-5.8789 4.7656c-0.27344 0.21484-0.42969 0.56641-0.42969 0.91797v7.9688c-0.25391-0.35156-0.68359-0.54688-1.1328-0.46875l-3.1641 0.52734c0.37109-0.54688 0.76172-1.0547 1.2109-1.543 0.33203-0.37109 0.39062-0.87891 0.15625-1.3281-0.21484-0.42969-0.68359-0.68359-1.1719-0.625-0.82031 0.097656-1.6406 0.13672-2.4805 0.15625 0.41016-0.48828 0.80078-0.99609 1.2109-1.4844 0.52734-0.625 0.19531-1.6602-0.58594-1.8555-2.4414-0.70312-4.9023-1.3867-7.3438-2.0898 2.2656-0.56641 7.2461-1.8359 9.5703-2.4219 0.46875-0.11719 0.82031-0.52734 0.87891-1.0156 0.058594-0.48828-0.19531-0.95703-0.64453-1.1719-1.875-0.9375-3.6914-1.9922-5.4688-3.1055 2.1484 0.37109 4.2383 0.70313 6.2695 1.0352 0.72266 0.13672 1.4258-0.50781 1.3672-1.25-0.11719-1.5625-0.23438-3.1445-0.33203-4.707l1.9922 1.9922c0.44922 0.44922 0.89844 0.50781 1.2109 0.48828 0.39062-0.039062 0.72266-0.23438 0.99609-0.58594l1.8555-2.3242c0.42969 1.8164 0.85937 3.6328 1.2891 5.4492 0.15625 0.625 0.78125 1.0156 1.4062 0.87891 0.66406-0.15625 1.0547-0.85938 0.83984-1.5039-0.60547-2.5586-1.2109-5.1367-1.8359-7.6953-0.19531-0.9375-1.4844-1.2109-2.0508-0.44922l-2.7344 3.4375-3.5352-3.5547c-0.74219-0.76172-2.0898-0.15625-1.9922 0.91797 0.15625 2.1289 0.3125 4.2578 0.46875 6.3867-3.1445-0.52734-6.4062-1.0742-9.9219-1.6602-1.1914-0.19531-1.875 1.3477-0.91797 2.0898 2.3438 1.7773 4.8047 3.418 7.3633 4.8633-3.5547 0.89844-7.3438 1.8555-10.879 2.7539-0.50781 0.13672-0.87891 0.58594-0.87891 1.1133s0.35156 0.99609 0.85938 1.1523c3.2812 0.9375 6.5625 1.8555 9.8438 2.793-0.52734 0.64453-1.0352 1.2891-1.5625 1.9336-0.27344 0.33203-0.33203 0.80078-0.15625 1.1914 0.17578 0.39062 0.54688 0.66406 0.97656 0.70312 0.85938 0.078125 1.7188 0.097657 2.5977 0.078125-0.42969 0.64453-0.80078 1.3281-1.1523 2.0312-0.42969 0.82031 0.33203 1.8359 1.25 1.6602 0 0 5.6055-0.9375 5.6055-0.9375 0.3125-0.058593 0.58594-0.23437 0.76172-0.46875v2.7539c-0.52734-0.039063-1.0938 0.11719-1.3477 0.625-0.60547 1.1328-1.2695 2.2656-2.0117 3.3594h-0.097656l-3.457-0.019532h-0.15625c-0.60547-1.3281-1.3281-2.5977-2.168-3.7891-0.19531-0.29297-0.44922-0.60547-0.83984-0.83984-0.52734-0.3125-1.0742-0.35156-1.4453-0.37109-0.85938-0.039062-1.7188-0.097656-2.5586-0.13672-0.21484-0.019532-0.44922-0.019532-0.54688-0.078125-0.19531-0.097657-0.39062-0.52734-0.56641-0.91797-0.3125-0.68359-0.70312-1.543-1.582-2.0312-1.1523-0.625-2.2852-0.23438-3.2031 0.078125-0.50781 0.17578-1.0156 0.35156-1.3477 0.27344-0.54688-0.11719-0.99609-0.99609-1.3086-1.7578-0.35156-0.83984-0.87891-1.582-1.2109-2.3633-0.50781-1.1719-2.2461-0.82031-2.2461 0.44922v23.945c-1.4453-0.42969-2.3242 0.3125-2.793 1.4453-0.70312 1.543-1.8555 2.9102-3.2812 3.8477-0.41016 0.27344-0.60547 0.78125-0.48828 1.25 0.29297 1.1914 0.50781 2.4219 0.64453 3.6328 0.21484 1.543 2.4414 1.3086 2.3242-0.25391-0.11719-1.0742-0.29297-2.1289-0.50781-3.1836 1.5234-1.1719 2.7344-2.7344 3.5156-4.4922 1.2305 0.27344 2.4609 0.60547 3.6719 1.0156 0.3125 1.25 0.50781 2.5391 0.64453 3.8086-0.54688 0.39063-1.0742 0.80078-1.582 1.2305-0.68359-0.058593-1.3477-0.097656-2.0312-0.15625-0.3125-0.019531-0.87891-0.058593-1.4062 0.3125-0.50781 0.35156-0.68359 0.85938-0.76172 1.0938-0.39063 1.0742-0.68359 2.1875-0.89844 3.3203-0.23438 1.5234 1.9531 1.9531 2.3047 0.42969 0.17578-0.95703 0.42969-1.9141 0.76172-2.832 1.6406 0.11719 3.3398 0.25391 5 0.39062 0.35156 0.039063 0.74219 0.078125 0.9375 0.19531 0.13672 0.078124 0.29297 0.25391 0.46875 0.41016 0.50781 0.56641 1.5625 1.4062 2.7344 0.9375l0.83984 1.1523c0.95703 1.2109 2.7734-0.097657 1.8945-1.3867l-1.0352-1.4062c-0.58594-0.89844-1.582-1.0156-2.4023-0.58594-0.41016-0.35156-0.74219-0.78125-1.25-1.0938-0.54688-0.35156-1.1523-0.44922-1.6602-0.50781 1.5234-1.0352 3.1445-1.9922 4.8438-2.6758 0.70312 0.17578 1.4453 0.52734 2.0898 0.87891 0.097656 0.058594 0.33203 0.17578 0.41016 0.27344 0.11719 0.13672 0.23438 0.52734 0.33203 0.76172 0.33203 0.83984 0.78125 1.6406 1.3477 2.3438 1.0156 1.1719 2.7539-0.21484 1.8359-1.4648-0.35156-0.42969-0.625-0.91797-0.85938-1.4062 0.66406-0.35156 1.3281-0.70312 1.9922-1.0547 0.29297-0.15625 0.70312-0.39062 0.95703-0.39062 0.19531 0 0.48828 0.13672 0.74219 0.23438 1.0352 0.44922 1.9922 0.87891 2.9102 1.3086 0.019532 1.7578 0 3.5547-0.19531 5.2734-0.99609-0.058594-1.7969 0.50781-2.6367 0.85938-0.41016-0.52734-0.91797-0.97656-1.5039-1.3086-0.54688-0.33203-1.2695-0.15625-1.6016 0.39062-0.33203 0.54688-0.15625 1.2695 0.39063 1.6016 0.52734 0.3125 0.97656 0.80078 1.25 1.3477 0.29297 0.56641 0.97656 0.80078 1.543 0.52734 0.76172-0.33203 1.582-0.78125 2.3438-1.0742 0.39062-0.058594 3.9258 0.74219 4.3945 0.80078 1.5234 0.25391 1.9727-1.9531 0.44922-2.3047 0 0-2.3242-0.44922-2.3242-0.44922 0.11719-0.68359 0.097656-1.1914 0.15625-1.8555 0.80078 0.35156 1.582 0.78125 2.2852 1.3086 0.41016 0.29297 0.97656 0.29297 1.3867-0.019531 0.72266-0.50781 1.2695-1.5625 1.9727-1.8555 0.17578-0.058594 0.42969-0.058594 0.72266-0.058594 1.1133 0 2.2461 0.019532 3.3594 0.019532l1.2891 2.1875c-1.1133 0.3125-2.0703 0.95703-2.8516 1.4844-0.66406 0.44922-0.74219 1.1133-0.60547 1.543 0.33203 1.0742 1.8555 1.1133 2.3047 0.11719 1.4648-0.97656 2.2852-1.2305 4.0039-0.76172 1.9141 0.42969 3.8281 0.9375 5.7031 1.4844 0.60547 0.17578 1.2695-0.17578 1.4453-0.80078 0.17578-0.625-0.17578-1.2695-0.80078-1.4453-0.85938-0.25391-1.7383-0.48828-2.6172-0.72266 0.25391-0.60547 0.44922-1.2305 0.60547-1.875 1.9531-0.76172 3.9258-1.5039 5.8789-2.2656 0.3125 0.58594 0.19531 1.0547 0.78125 1.6602 0.33203 0.3125 0.70312 0.41016 0.91797 0.44922l1.4648 0.37109c0.039063 0.019531 0.058594 0.039062 0.097657 0.058593-0.33203 0.46875-0.64453 0.91797-0.97656 1.3867-0.37109 0.52734-0.25391 1.25 0.27344 1.6406 0.52734 0.37109 1.25 0.25391 1.6406-0.27344 1.0742-1.5039 2.1484-3.0273 3.2227-4.5312 1.2695-0.11719 2.5586-0.25391 3.8281-0.37109 0.019531 0.019531 0.058593 0.039063 0.078125 0.058594l2.8125 2.0703c1.2891 0.87891 2.5977-0.91797 1.3867-1.8945l-2.832-2.0703c-0.17578-0.13672-0.42969-0.3125-0.78125-0.42969-0.41016-0.11719-0.80078-0.097656-1.0547-0.058594-0.48828 0.058594-0.99609 0.097656-1.4844 0.15625-0.19531-1.0352-0.39062-2.0898-0.60547-3.125 0.35156-0.23438 2.1484-1.7188 2.4805-1.8555 0.27344-0.097657 0.82031-0.058594 1.1328-0.078126 0.13672 0.019532 0.27344 0.019532 0.41016-0.019531l1.3281-0.039062c0.82031 1.1914 1.3867 2.5586 1.6406 3.9648 0.3125 1.4844 2.5195 1.0938 2.2852-0.44922zm-11.172-36.621c0.19531 0.83984 0.83984 2.1875 2.3438 2.168l0.60547 5.4102c-1.2305-0.48828-2.4414-0.97656-3.6719-1.4453-0.3125-1.8555-0.87891-5.293-1.1914-7.1094 0.56641 0.13672 1.1328 0.23437 1.7188 0.33203 0.078125 0.19531 0.13672 0.42969 0.19531 0.64453zm-3.6133 3.0469 0.54687 3.3008c0.039063 0.35156 0.27344 1.2109 0.80078 1.582v1.9531h-2.8516v-6.8359zm-40.41 31.172c-0.54688-0.23438-1.4062-0.27344-1.9531-0.019531 0.019532-2.9102 0.11719-4.6875 0.17578-7.5391 1.1328-0.78125 2.3047-1.543 3.4961-2.2656 0.54688-0.33203 0.72266-1.0547 0.39062-1.6211-0.33203-0.54688-1.0547-0.72266-1.6211-0.39063-1.3867 0.83984-2.7539 1.7383-4.082 2.6758-0.3125 0.21484-0.48828 0.56641-0.50781 0.9375-0.078125 3.6719-0.19531 5.4102-0.19531 9.3359-0.42969 0.23438-0.85938 0.46875-1.2695 0.72266-0.13672-0.99609-0.3125-1.9727-0.56641-2.9492-0.058594-0.23438-0.15625-0.64453-0.48828-0.99609-0.35156-0.39062-0.76172-0.52734-1.0156-0.625-0.50781-0.17578-1.0156-0.33203-1.5039-0.46875v-19.844c1.4453 1.7969 3.125 1.4648 5 0.76172-0.058594 1.3086-0.078125 2.6367-0.058594 3.9844 0.078126 1.543 2.3242 1.5039 2.3438-0.039063-0.019531-0.54688-0.019531-1.0938 0-1.6602 0.23438 0.27344 0.52734 0.50781 0.89844 0.66406 0.50781 0.23438 1.0156 0.25391 1.3867 0.27344 0.97656 0.078125 1.9531 0.078125 2.9297 0.17578 0.80078 1.0547 1.4648 2.2266 2.0312 3.4375 0.15625 0.33203 0.39062 0.85938 0.9375 1.1914 0.50781 0.33203 1.0742 0.33203 1.4062 0.33203l3.4766 0.019531c0.83984 0.058594 1.6406-0.3125 2.0703-1.0742 0.625-0.95703 1.2305-1.9336 1.7773-2.9297 0.44922 0 0.89844 0.019531 1.3477 0.078125v16.367h-0.56641c-0.27344-0.625-0.56641-1.25-0.83984-1.875-0.23438-0.625-0.87891-1.1328-1.6406-1.0742 0.17578-1.0547 0.3125-2.1094 0.42969-3.125 0.11719-0.70313-0.3125-1.4453-1.0742-1.6406-0.80078-0.25391-1.6211-0.48828-2.4414-0.72266-1.5039-0.35156-2.1094 1.7969-0.625 2.2656 0.58594 0.15625 1.1719 0.33203 1.7383 0.50781-0.11719 0.9375-0.25391 1.8945-0.41016 2.8711-1.2305 0.058593-2.4609 0.13672-3.6914 0.19531-0.33203 0.019531-0.9375 0.058594-1.4258 0.48828-0.44922 0.39062-0.60547 0.89844-0.68359 1.1719-0.29297 1.0352-0.54687 2.1094-0.74219 3.1641-0.46875 0.25391-0.9375 0.48828-1.4062 0.74219-0.95703-0.72266-1.9727-1.1133-3.0273-1.5039zm17.969 4.6289c-1.0156 0.33203-1.582 1.0547-2.1289 1.6602-0.87891-0.54687-1.7969-0.99609-2.7539-1.3477 0-0.70312 0-1.4062-0.019531-2.1094-0.019532-0.44922-0.27344-0.83984-0.68359-1.0352-1.1523-0.52734-2.3438-1.0742-3.6133-1.6406-0.44922-0.19531-1.0938-0.46875-1.7969-0.42969 0.11719-0.48828 0.23437-0.99609 0.37109-1.4844 1.875-0.097657 3.75-0.21484 5.625-0.3125 0.25391 0.56641 0.52734 1.1523 0.78125 1.7383 0.29297 0.78125 1.0156 1.25 1.8555 1.1914 1.6992 0 1.9727 0.17578 3.1641-1.0938 0.17578 0.058594 0.44922 0.11719 0.64453 0.097656 0.37109 1.5234 0.68359 3.0469 0.95703 4.5898-0.85938 0.039063-1.5234-0.078125-2.4023 0.17578zm9.4141 4.5117c-0.27344-0.058594-0.52734-0.11719-0.80078-0.15625 0.078126-0.19531-1.8164-3.2031-1.9141-3.4375-0.41016-0.78125-1.0938-1.0938-1.9531-1.0352-0.11719-0.74219-0.25391-1.4844-0.41016-2.2461 0.87891 0.039063 1.7383 0.25391 2.5977-0.19531 0.37109-0.19531 0.60547-0.44922 0.78125-0.625 0.85938-0.89844 1.7188-1.7773 2.5781-2.6758 0.78125 0.097657 1.543 0.19531 2.3242 0.29297 0.23438 0.50781 0.44922 1.0156 0.625 1.5234-0.50781 0.17578-0.91797 0.60547-0.91797 1.1719l-0.019531 4.082v0.097656c-0.74219 0.23438-1.1914 0.89844-1.3086 1.543-0.15625 0.64453-0.37109 1.2891-0.64453 1.8945-0.3125-0.097656-0.625-0.17578-0.9375-0.23438zm15.234-3.9648c-0.25391 0.37109-0.50781 0.72266-0.78125 1.0938-0.019531 0-0.058594-0.019531-0.078125-0.019531l-2.1875-0.56641c-0.21484-0.74219-0.58594-1.4648-1.0742-2.0508-0.3125-0.39062-0.85938-0.54687-1.3281-0.35156-1.5234 0.58594-3.0469 1.1719-4.5508 1.7578l0.019531-2.5c0.76172-0.33203 1.5625-0.58594 2.3828-0.74219 1.0547-0.17578 1.6016-0.76172 1.9531-1.7383 1.543-0.64453 3.1055-1.25 4.6484-1.8945 0.19531-0.078124 0.50781-0.19531 0.64453-0.19531 0.11719 0.019531 0.33203 0.11719 0.48828 0.21484 0.54687 0.29297 1.1133 0.56641 1.6602 0.85938-0.68359 0.46875-1.0938 1.0352-0.89844 1.9336 0.21484 1.0938 0.41016 2.168 0.625 3.2422-0.23438 0.039062-0.52734 0.097656-0.83984 0.27344-0.35156 0.19531-0.54687 0.50781-0.68359 0.68359zm4.9219-8.3789c-0.44922 0.17578-0.80078 0.44922-1.0547 0.64453-0.87891-0.46875-1.7578-0.91797-2.6367-1.3672-0.33203-0.17578-0.78125-0.41016-1.3477-0.46875-0.72266-0.078125-1.3477 0.17578-1.7578 0.35156-1.3477 0.54688-2.6758 1.0938-4.0234 1.6211-1.0156 0.37109-1.6406 0.70312-2.0508 1.8555-0.42969 0.097656-0.85938 0.19531-1.2695 0.3125-0.21484-0.60547-0.44922-1.1914-0.72266-1.7773-0.11719-0.25391-0.25391-0.50781-0.52734-0.76172-0.42969-0.39062-0.9375-0.44922-1.25-0.48828-0.85938-0.11719-1.7188-0.21484-2.5781-0.33203-0.17578-0.019531-0.50781-0.058594-0.87891 0.078125-0.35156 0.13672-0.58594 0.37109-0.72266 0.48828-0.95703 0.99609-1.9141 2.0117-2.8906 3.0078-0.29297 0.039062-1.7188-0.097657-2.0312-0.11719-0.27344-1.6602-1.1133-2.5391-2.3828-2.3438-0.15625-0.058594-0.46875-0.17578-0.72266-0.19531v-16.211c0-0.56641-0.41016-1.0547-0.97656-1.1523-0.25391-0.039062-0.50781-0.078125-0.76172-0.11719v-11.66l2.1289-1.7188c0.41016 0.66406 0.82031 1.4844 1.6797 1.4844 0.48828 0 0.83984-0.25391 0.95703-0.33203 0.25391-0.19531 0.52734-0.35156 0.82031-0.46875 0.44922 0.39062 0.89844 0.80078 1.3477 1.1914v8.4766c0 0.64453 0.52734 1.1719 1.1719 1.1719h5.1953c0.64453 0 1.1719-0.52734 1.1719-1.1719v-9.1797c0-0.64453-0.52734-1.1719-1.1719-1.1719h-4.9414c-0.48828-0.42969-0.97656-0.85937-1.4648-1.2891-0.85938-0.82031-1.9141-0.37109-2.7539 0.078125-0.058593-0.097656-0.11719-0.17578-0.17578-0.27344l1.3086-1.0547 5.3711-1.543c0.33203-0.097656 0.58594-0.3125 0.74219-0.625 0.35156-0.74219 1.2305-1.7578 1.7578-2.5 0.3125-0.44922 0.27344-1.0742-0.097657-1.4648-0.39062-0.42969-0.83984-0.78125-1.3281-1.0938 0.27344-1.0547 0.44922-2.1289 0.50781-3.2227 1.4648-0.078125 2.9102-0.23438 4.375-0.33203 0.058593 0.60547 0.11719 1.2305 0.17578 1.8359 0.019531 0.29297 0.078125 0.82031 0.46875 1.2891 0.3125 0.37109 0.70312 0.52734 0.89844 0.60547 0.68359 0.27344 1.3867 0.50781 2.1094 0.70312 0.019532 0.50781-0.039062 1.0352-0.19531 1.5234-0.078125 0.23438-0.19531 0.58594-0.11719 1.0547 0.27344 1.1914 1.2305 1.3477 1.8555 1.5625 0.56641 0.23438 0.74219 1.4453 0.83984 1.9531 0.15625 0.9375 0.3125 1.875 0.46875 2.793h-2.2656c-0.64453 0-1.1719 0.52734-1.1719 1.1719v9.1797c0 0.64453 0.52734 1.1719 1.1719 1.1719h5.1953c0.64453 0 1.1719-0.52734 1.1719-1.1719v-2.0898c1.4453 0.56641 2.9297 1.1523 4.375 1.7383v20.117c-0.33203 0.058594-0.66406 0.097656-0.99609 0.23438zm-21.289-21.133v-6.8359h2.8516v6.8359z"/>
  <path d="m61.367 64.336h-5.1953c-0.64453 0-1.1719 0.52734-1.1719 1.1719v9.1797c0 0.64453 0.52734 1.1719 1.1719 1.1719h5.1953c0.64453 0 1.1719-0.52734 1.1719-1.1719v-9.1797c0-0.64453-0.50781-1.1719-1.1719-1.1719zm-1.1719 9.1797h-2.8516v-6.8359h2.8516z"/>
  <path d="m74.062 64.336h-5.1953c-0.64453 0-1.1719 0.52734-1.1719 1.1719v9.1797c0 0.64453 0.52734 1.1719 1.1719 1.1719h5.1953c0.64453 0 1.1719-0.52734 1.1719-1.1719v-9.1797c0-0.64453-0.52734-1.1719-1.1719-1.1719zm-1.1719 9.1797h-2.8516v-6.8359h2.8516z"/>
  <path d="m19.805 49.785h0.13672l4.707-0.52734c1.543-0.21484 1.2891-2.4414-0.25391-2.3242 0 0-4.707 0.52734-4.707 0.52734-1.4844 0.17578-1.3477 2.2852 0.11719 2.3242z"/>
  <path d="m24.883 34.336c-1.4844-0.46875-2.2266 1.6406-0.78125 2.207l4.2188 1.5039c0.13672 0.039063 0.25391 0.058594 0.39063 0.058594 1.2891-0.019531 1.6211-1.8164 0.39062-2.2852 0 0.019532-4.2188-1.4844-4.2188-1.4844z"/>
  <path d="m19.453 35.02 1.875 0.58594c0.60547 0.19531 1.2695-0.13672 1.4648-0.76172 0.19531-0.625-0.15625-1.2695-0.76172-1.4648l-1.875-0.58594c-1.5039-0.42969-2.168 1.7188-0.70312 2.2266z"/>
  <path d="m23.496 13.242c0.60547 0.15625 1.2695-0.21484 1.4258-0.85938 0 0 0.11719-0.46875 0.11719-0.46875l0.99609 0.25391-0.23438 0.9375c-0.15625 0.625 0.23438 1.2695 0.85938 1.4258l5.625 1.4062c1.0938 0.27344 2.2266 0.13672 3.2227-0.39062l0.70313-0.37109c0.54687-0.29297 0.9375-0.80078 1.0938-1.4062s0.039062-1.2305-0.3125-1.7383l-0.44922-0.64453c-0.625-0.9375-1.582-1.6016-2.6562-1.8555l-5.625-1.4062c-0.625-0.15625-1.2695 0.23438-1.4258 0.85938l-0.23438 0.9375-0.99609-0.25391 0.11719-0.46875c0.33203-1.5234-1.8555-2.0508-2.2656-0.56641l-0.80078 3.2031c-0.17578 0.625 0.21484 1.25 0.83984 1.4062zm9.8242-1.4648c0.52734 0.13672 0.97656 0.44922 1.2891 0.89844l0.33203 0.50781-0.52734 0.29297c-0.48828 0.25391-1.0352 0.33203-1.5625 0.19531l-4.4922-1.1133 0.46875-1.875z"/>
  <path d="m35.625 19.922c-0.27344 0.15625-0.44922 0.41016-0.52734 0.72266l-0.23438 0.9375-0.99609-0.25391 0.11719-0.46875c0.15625-0.625-0.23438-1.2695-0.85938-1.4258s-1.2695 0.23438-1.4258 0.85938l-0.39062 1.582v0.019531 0.019531l-0.39062 1.582c-0.15625 0.625 0.23438 1.2695 0.85938 1.4258 0.60547 0.15625 1.2695-0.21484 1.4258-0.85938 0 0 0.11719-0.46875 0.11719-0.46875l0.99609 0.25391-0.23438 0.9375c-0.15625 0.625 0.23438 1.2695 0.85938 1.4258l5.625 1.4062c1.0742 0.27344 2.2266 0.13672 3.2227-0.39063l0.70313-0.37109c1.1133-0.56641 1.5039-2.1289 0.78125-3.1445 0 0-0.42969-0.66406-0.42969-0.66406-0.625-0.9375-1.582-1.6016-2.6562-1.8555l-5.625-1.4062c-0.35156-0.078125-0.66406-0.019531-0.9375 0.13672zm5.957 3.5547c0.52734 0.13672 0.97656 0.44922 1.2891 0.89844l0.33203 0.50781-0.52734 0.29297c-0.46875 0.25391-1.0352 0.33203-1.5625 0.19531l-4.4922-1.1133c0.11719-0.46875 0.35156-1.4062 0.46875-1.875z"/>
  <path d="m57.363 16.191c0.60547 0.15625 1.2695-0.21484 1.4258-0.85938 0 0 0.11719-0.46875 0.11719-0.46875l0.99609 0.25391-0.23438 0.9375c-0.15625 0.625 0.23438 1.2695 0.85938 1.4258l5.625 1.4062c1.0938 0.27344 2.2266 0.13672 3.2227-0.39062l0.70312-0.37109c0.54688-0.29297 0.9375-0.80078 1.0938-1.3867 0.15625-0.60547 0.039063-1.2305-0.3125-1.7383 0 0-0.42969-0.66406-0.42969-0.66406-0.625-0.9375-1.582-1.6016-2.6562-1.8555l-5.6641-1.4258c-0.625-0.15625-1.2695 0.23437-1.4258 0.85937l-0.23438 0.9375-0.99609-0.25391 0.11719-0.46875c0.33203-1.5234-1.8359-2.0508-2.2656-0.56641l-0.39063 1.582v0.019531l-0.39062 1.582c-0.17578 0.64453 0.19531 1.2891 0.83984 1.4453zm9.8047-1.4648c0.52734 0.13672 0.97656 0.44922 1.2891 0.89844l0.33203 0.50781-0.52734 0.29297c-0.46875 0.25391-1.0352 0.3125-1.5625 0.19531l-4.4922-1.1133 0.46875-1.875z"/>
 </g>
</svg>
