<?xml version="1.0" encoding="UTF-8"?>
<svg width="100pt" height="100pt" version="1.1" viewBox="0 0 100 100" xmlns="http://www.w3.org/2000/svg">
 <path d="m56.043 53.586c-0.015625-0.60547 0.375-2.9766 0.76562-4.1875 0.72266-2.2227 1.4336-3.8906 2.0547-6.0977 0.125-0.45703 0.14062-0.96484 0.13281-1.4805-0.007813-0.41406-0.03125-0.83594 0.023437-1.2227 0.23047-1.5469 1.0273-3.1133 1.043-4.6719 0.023438-2.8789-0.79297-5.832-0.62109-8.6875 0.019532-0.28906 0.27734-0.875 0.56641-1.582 0.50391-1.25 1.1211-2.7969 1.1797-3.8789 0.035156-0.65234-0.125-1.168-0.46094-1.4961-0.25-0.23828-0.59766-0.40234-1.0859-0.41406-0.80469-0.023438-1.25 0.35547-1.5938 0.88281-0.14453 0.21875-0.26562 0.47266-0.40625 0.71484-0.14062 0.23438-0.28906 0.47266-0.58203 0.58594-0.59375 0.22656-1.3438 0.042969-2.0703-0.035156-1.0195-0.10938-1.9961-0.058594-2.7148 0.66016-0.078126 0.078125-0.16406 0.19922-0.20703 0.38281-0.035156 0.13672-0.054687 0.35938-0.058594 0.62891-0.003906 0.40625 0.019532 0.95703-0.03125 1.4414-0.023437 0.23438-0.050781 0.44922-0.13672 0.59766-0.097656 0.16406-0.25391 0.26172-0.41797 0.34375-0.25781 0.12891-0.54688 0.21875-0.80859 0.32813-0.51953 0.21484-0.95312 0.50781-1.1758 1.0156-0.61719 1.3906-0.47266 3.1211-0.70703 4.5977-0.44922 2.8047-1.2852 7.6211-2.3281 10.129-1.5781 3.8086-4.6406 5.7539-7.4219 8.5977-0.15625 0.16016-0.21094 0.39062-0.14844 0.60156 1.0352 3.5117 2.9258 7.4062 4.1211 10.863 0.90625 2.6094 1.1836 5.4219 2.0898 8.0742 0.67578 1.9805 1.6641 3.9453 2.1211 5.9883 0.078126 0.35156 0.66016 2.8516 0.80078 3.3398 0.058594 0.21484 0.15234 0.31641 0.16797 0.33594 0.24219 0.25781 0.5 0.21875 0.66797 0.15234 0.09375-0.03125 0.20312-0.097656 0.31641-0.21484 0.10937-0.10938 0.25-0.30078 0.39844-0.55469 0.67578-1.1484 1.7695-3.8398 1.9961-4.3828 0.25781-0.60938 0.71484-1.1289 1.1484-1.6602 0.52344-0.64062 1.0078-1.2969 1.2305-2.0586 0.29297-1.0195 0.16016-2.1484-0.039063-3.2852-0.17578-0.98438-0.40234-1.9688-0.31641-2.875 0.0625-0.68359 0.38281-1.2891 0.73438-1.8828 0.41406-0.69922 0.87891-1.3828 1.168-2.1133 0.60156-1.5156 0.84766-3.0898 1.3711-4.6133 0.039062-0.11328 0.62109-1.207 0.70703-1.4609 0.12109-0.35938-0.054687-0.58594-0.10938-0.64844-0.19141-0.22656-0.53516-0.39844-0.90234-0.54297-0.14844-0.058593-0.37891-0.17188-0.46094-0.21484zm0.11328 1.4023c-0.19922 0.40625-0.48438 0.99219-0.51172 1.0625-0.51562 1.5078-0.75781 3.0625-1.3516 4.5625-0.26562 0.67188-0.69922 1.2969-1.082 1.9414-0.44531 0.75-0.82031 1.5273-0.90234 2.3945-0.09375 1.0078 0.13672 2.1094 0.33203 3.2031 0.16797 0.94531 0.3125 1.8828 0.066406 2.7266-0.17578 0.60938-0.58594 1.1172-1 1.625-0.50781 0.625-1.0273 1.2461-1.3281 1.9648-0.18359 0.42969-0.92578 2.2617-1.5469 3.5273-0.19922-0.83984-0.42188-1.793-0.46875-2-0.46875-2.0859-1.4688-4.0938-2.1562-6.1172-0.90625-2.6523-1.1836-5.4688-2.0898-8.082-1.1523-3.3242-2.9492-7.0547-4-10.457 2.8203-2.8242 5.8281-4.8789 7.4219-8.7266 1.0703-2.5781 1.9453-7.5273 2.4062-10.406 0.21875-1.3789 0.042969-2.9961 0.61719-4.2969 0.078125-0.17578 0.25391-0.25781 0.42969-0.33594 0.21094-0.09375 0.4375-0.16797 0.65625-0.25781 0.50391-0.20703 0.96484-0.48047 1.25-0.96484 0.19922-0.33594 0.29687-0.86719 0.32812-1.4258 0.023438-0.51172 0.03125-1.2344 0.03125-1.4805 0.4375-0.33594 1.0156-0.26953 1.5977-0.20703 0.92969 0.097657 1.8828 0.25 2.6445-0.039062 0.62891-0.24219 0.98828-0.72656 1.2734-1.2422 0.12109-0.21094 0.22266-0.42969 0.35547-0.60938 0.10938-0.14844 0.24219-0.25781 0.47656-0.25391 0.11328 0.003906 0.20312 0.011719 0.26172 0.070312 0.058593 0.054688 0.074218 0.14453 0.085937 0.24609 0.035156 0.27734-0.015625 0.61719-0.10156 0.99219-0.27344 1.1719-0.92578 2.6016-1.3047 3.5898-0.19531 0.50781-0.31641 0.92578-0.33203 1.1719-0.17578 2.875 0.64062 5.8516 0.61719 8.75-0.011719 1.5039-0.80469 3.0117-1.0273 4.5039-0.066407 0.44922-0.050782 0.9375-0.039063 1.4258 0.003906 0.39062 0.007813 0.77734-0.089844 1.125-0.61328 2.1875-1.3203 3.8438-2.0352 6.0508-0.46094 1.4219-0.87891 4.2734-0.81641 4.7852 0.054687 0.42187 0.35156 0.74609 0.80469 0.96484 0.16406 0.078125 0.35156 0.14453 0.52734 0.21875z" fill="#c58d20" fill-rule="evenodd"/>
</svg>
